solid ascii
  facet normal 1.000000e+000 -0.000000e+000 0.000000e+000
    outer loop
      vertex   -2.094220e+002 5.068653e+000 2.300000e+001
      vertex   -2.094220e+002 5.068653e+000 0.000000e+000
      vertex   -2.094220e+002 5.210628e+000 2.300000e+001
    endloop
  endfacet
  facet normal 1.000000e+000 -0.000000e+000 0.000000e+000
    outer loop
      vertex   -2.094220e+002 5.210628e+000 2.300000e+001
      vertex   -2.094220e+002 5.068653e+000 0.000000e+000
      vertex   -2.094220e+002 5.210628e+000 0.000000e+000
    endloop
  endfacet
  facet normal 0.000000e+000 -0.000000e+000 1.000000e+000
    outer loop
      vertex   -2.094220e+002 5.068653e+000 2.300000e+001
      vertex   -2.094220e+002 5.210628e+000 2.300000e+001
      vertex   -2.116133e+002 3.000000e+000 2.300000e+001
    endloop
  endfacet
  facet normal 0.000000e+000 -0.000000e+000 1.000000e+000
    outer loop
      vertex   -2.116133e+002 3.000000e+000 2.300000e+001
      vertex   -2.094220e+002 5.210628e+000 2.300000e+001
      vertex   -2.119417e+002 3.000000e+000 2.300000e+001
    endloop
  endfacet
  facet normal 0.000000e+000 -0.000000e+000 1.000000e+000
    outer loop
      vertex   -2.119417e+002 3.000000e+000 2.300000e+001
      vertex   -2.094220e+002 5.210628e+000 2.300000e+001
      vertex   -2.101242e+002 8.169236e+000 2.300000e+001
    endloop
  endfacet
  facet normal -0.000000e+000 0.000000e+000 1.000000e+000
    outer loop
      vertex   -2.131517e+002 9.074596e+000 2.300000e+001
      vertex   -2.119417e+002 3.000000e+000 2.300000e+001
      vertex   -2.101242e+002 8.169236e+000 2.300000e+001
    endloop
  endfacet
  facet normal 0.000000e+000 0.000000e+000 1.000000e+000
    outer loop
      vertex   -2.131517e+002 9.074596e+000 2.300000e+001
      vertex   -2.147198e+002 3.830764e+000 2.300000e+001
      vertex   -2.119417e+002 3.000000e+000 2.300000e+001
    endloop
  endfacet
  facet normal 0.000000e+000 0.000000e+000 1.000000e+000
    outer loop
      vertex   -2.131517e+002 9.074596e+000 2.300000e+001
      vertex   -2.154495e+002 6.905360e+000 2.300000e+001
      vertex   -2.147198e+002 3.830764e+000 2.300000e+001
    endloop
  endfacet
  facet normal -0.000000e+000 -1.000000e+000 0.000000e+000
    outer loop
      vertex   -2.116133e+002 3.000000e+000 0.000000e+000
      vertex   -2.116133e+002 3.000000e+000 2.300000e+001
      vertex   -2.119417e+002 3.000000e+000 0.000000e+000
    endloop
  endfacet
  facet normal 0.000000e+000 -1.000000e+000 0.000000e+000
    outer loop
      vertex   -2.119417e+002 3.000000e+000 0.000000e+000
      vertex   -2.116133e+002 3.000000e+000 2.300000e+001
      vertex   -2.119417e+002 3.000000e+000 2.300000e+001
    endloop
  endfacet
  facet normal 2.865062e-001 9.580784e-001 -0.000000e+000
    outer loop
      vertex   -2.119417e+002 3.000000e+000 0.000000e+000
      vertex   -2.119417e+002 3.000000e+000 2.300000e+001
      vertex   -2.116923e+002 2.925404e+000 0.000000e+000
    endloop
  endfacet
  facet normal 2.865062e-001 9.580784e-001 0.000000e+000
    outer loop
      vertex   -2.116923e+002 2.925404e+000 0.000000e+000
      vertex   -2.119417e+002 3.000000e+000 2.300000e+001
      vertex   -2.116923e+002 2.925404e+000 2.600000e+001
    endloop
  endfacet
  facet normal 2.865062e-001 9.580784e-001 6.350405e-015
    outer loop
      vertex   -2.116923e+002 2.925404e+000 2.600000e+001
      vertex   -2.119417e+002 3.000000e+000 2.300000e+001
      vertex   -2.147198e+002 3.830764e+000 2.600000e+001
    endloop
  endfacet
  facet normal 2.865062e-001 9.580784e-001 0.000000e+000
    outer loop
      vertex   -2.147198e+002 3.830764e+000 2.600000e+001
      vertex   -2.119417e+002 3.000000e+000 2.300000e+001
      vertex   -2.147198e+002 3.830764e+000 2.300000e+001
    endloop
  endfacet
  facet normal 9.729733e-001 2.309175e-001 0.000000e+000
    outer loop
      vertex   -2.147198e+002 3.830764e+000 2.300000e+001
      vertex   -2.154495e+002 6.905360e+000 2.300000e+001
      vertex   -2.147198e+002 3.830764e+000 2.600000e+001
    endloop
  endfacet
  facet normal 9.729733e-001 2.309175e-001 -0.000000e+000
    outer loop
      vertex   -2.147198e+002 3.830764e+000 2.600000e+001
      vertex   -2.154495e+002 6.905360e+000 2.300000e+001
      vertex   -2.154495e+002 6.905360e+000 2.600000e+001
    endloop
  endfacet
  facet normal 6.864671e-001 -7.271609e-001 0.000000e+000
    outer loop
      vertex   -2.154495e+002 6.905360e+000 2.300000e+001
      vertex   -2.131517e+002 9.074596e+000 2.300000e+001
      vertex   -2.154495e+002 6.905360e+000 2.600000e+001
    endloop
  endfacet
  facet normal 6.864671e-001 -7.271609e-001 0.000000e+000
    outer loop
      vertex   -2.154495e+002 6.905360e+000 2.600000e+001
      vertex   -2.131517e+002 9.074596e+000 2.300000e+001
      vertex   -2.131517e+002 9.074596e+000 2.600000e+001
    endloop
  endfacet
  facet normal 1.000000e+000 0.000000e+000 -0.000000e+000
    outer loop
      vertex   -2.700000e+002 3.000000e+000 2.000000e+000
      vertex   -2.700000e+002 1.100000e+001 2.000000e+000
      vertex   -2.700000e+002 3.000000e+000 2.600000e+001
    endloop
  endfacet
  facet normal 1.000000e+000 -0.000000e+000 0.000000e+000
    outer loop
      vertex   -2.700000e+002 3.000000e+000 2.600000e+001
      vertex   -2.700000e+002 1.100000e+001 2.000000e+000
      vertex   -2.700000e+002 1.100000e+001 2.600000e+001
    endloop
  endfacet
  facet normal 0.000000e+000 1.000000e+000 -0.000000e+000
    outer loop
      vertex   -2.700000e+002 1.100000e+001 2.000000e+000
      vertex   -2.780000e+002 1.100000e+001 2.000000e+000
      vertex   -2.700000e+002 1.100000e+001 2.600000e+001
    endloop
  endfacet
  facet normal 0.000000e+000 1.000000e+000 -0.000000e+000
    outer loop
      vertex   -2.700000e+002 1.100000e+001 2.600000e+001
      vertex   -2.780000e+002 1.100000e+001 2.000000e+000
      vertex   -2.780000e+002 1.100000e+001 2.600000e+001
    endloop
  endfacet
  facet normal -1.000000e+000 -0.000000e+000 -0.000000e+000
    outer loop
      vertex   -2.780000e+002 5.347306e+000 2.300000e+001
      vertex   -2.780000e+002 5.347306e+000 0.000000e+000
      vertex   -2.780000e+002 5.117952e+000 2.300000e+001
    endloop
  endfacet
  facet normal -1.000000e+000 -0.000000e+000 -0.000000e+000
    outer loop
      vertex   -2.780000e+002 5.117952e+000 2.300000e+001
      vertex   -2.780000e+002 5.347306e+000 0.000000e+000
      vertex   -2.780000e+002 5.117952e+000 0.000000e+000
    endloop
  endfacet
  facet normal 0.000000e+000 -0.000000e+000 1.000000e+000
    outer loop
      vertex   -2.727531e+002 3.778020e+000 2.300000e+001
      vertex   -2.719523e+002 6.834853e+000 2.300000e+001
      vertex   -2.755934e+002 3.000000e+000 2.300000e+001
    endloop
  endfacet
  facet normal 0.000000e+000 -0.000000e+000 1.000000e+000
    outer loop
      vertex   -2.755934e+002 3.000000e+000 2.300000e+001
      vertex   -2.719523e+002 6.834853e+000 2.300000e+001
      vertex   -2.780000e+002 5.347306e+000 2.300000e+001
    endloop
  endfacet
  facet normal 0.000000e+000 0.000000e+000 1.000000e+000
    outer loop
      vertex   -2.758583e+002 3.000000e+000 2.300000e+001
      vertex   -2.780000e+002 5.347306e+000 2.300000e+001
      vertex   -2.780000e+002 5.117952e+000 2.300000e+001
    endloop
  endfacet
  facet normal 0.000000e+000 -0.000000e+000 1.000000e+000
    outer loop
      vertex   -2.758583e+002 3.000000e+000 2.300000e+001
      vertex   -2.755934e+002 3.000000e+000 2.300000e+001
      vertex   -2.780000e+002 5.347306e+000 2.300000e+001
    endloop
  endfacet
  facet normal 0.000000e+000 0.000000e+000 1.000000e+000
    outer loop
      vertex   -2.741991e+002 9.056833e+000 2.300000e+001
      vertex   -2.772469e+002 8.221980e+000 2.300000e+001
      vertex   -2.719523e+002 6.834853e+000 2.300000e+001
    endloop
  endfacet
  facet normal 0.000000e+000 0.000000e+000 1.000000e+000
    outer loop
      vertex   -2.719523e+002 6.834853e+000 2.300000e+001
      vertex   -2.772469e+002 8.221980e+000 2.300000e+001
      vertex   -2.780000e+002 5.347306e+000 2.300000e+001
    endloop
  endfacet
  facet normal 2.641940e-001 -9.644695e-001 0.000000e+000
    outer loop
      vertex   -2.772469e+002 8.221980e+000 2.300000e+001
      vertex   -2.741991e+002 9.056833e+000 2.300000e+001
      vertex   -2.772469e+002 8.221980e+000 2.600000e+001
    endloop
  endfacet
  facet normal 2.641940e-001 -9.644695e-001 0.000000e+000
    outer loop
      vertex   -2.772469e+002 8.221980e+000 2.600000e+001
      vertex   -2.741991e+002 9.056833e+000 2.300000e+001
      vertex   -2.741991e+002 9.056833e+000 2.600000e+001
    endloop
  endfacet
  facet normal -7.031581e-001 -7.110335e-001 0.000000e+000
    outer loop
      vertex   -2.741991e+002 9.056833e+000 2.300000e+001
      vertex   -2.719523e+002 6.834853e+000 2.300000e+001
      vertex   -2.741991e+002 9.056833e+000 2.600000e+001
    endloop
  endfacet
  facet normal -7.031581e-001 -7.110335e-001 0.000000e+000
    outer loop
      vertex   -2.741991e+002 9.056833e+000 2.600000e+001
      vertex   -2.719523e+002 6.834853e+000 2.300000e+001
      vertex   -2.719523e+002 6.834853e+000 2.600000e+001
    endloop
  endfacet
  facet normal -9.673522e-001 2.534360e-001 0.000000e+000
    outer loop
      vertex   -2.719523e+002 6.834853e+000 2.300000e+001
      vertex   -2.727531e+002 3.778020e+000 2.300000e+001
      vertex   -2.719523e+002 6.834853e+000 2.600000e+001
    endloop
  endfacet
  facet normal -9.673522e-001 2.534360e-001 0.000000e+000
    outer loop
      vertex   -2.719523e+002 6.834853e+000 2.600000e+001
      vertex   -2.727531e+002 3.778020e+000 2.300000e+001
      vertex   -2.727531e+002 3.778020e+000 2.600000e+001
    endloop
  endfacet
  facet normal -0.000000e+000 -1.000000e+000 0.000000e+000
    outer loop
      vertex   -2.755934e+002 3.000000e+000 0.000000e+000
      vertex   -2.755934e+002 3.000000e+000 2.300000e+001
      vertex   -2.758583e+002 3.000000e+000 0.000000e+000
    endloop
  endfacet
  facet normal 0.000000e+000 -1.000000e+000 0.000000e+000
    outer loop
      vertex   -2.758583e+002 3.000000e+000 0.000000e+000
      vertex   -2.755934e+002 3.000000e+000 2.300000e+001
      vertex   -2.758583e+002 3.000000e+000 2.300000e+001
    endloop
  endfacet
  facet normal 1.000000e+000 0.000000e+000 -0.000000e+000
    outer loop
      vertex   -2.780000e+002 1.100000e+001 2.000000e+000
      vertex   -2.780000e+002 4.738500e+001 2.000000e+000
      vertex   -2.780000e+002 1.100000e+001 2.600000e+001
    endloop
  endfacet
  facet normal 1.000000e+000 -0.000000e+000 0.000000e+000
    outer loop
      vertex   -2.780000e+002 1.100000e+001 2.600000e+001
      vertex   -2.780000e+002 4.738500e+001 2.000000e+000
      vertex   -2.780000e+002 4.738500e+001 2.600000e+001
    endloop
  endfacet
  facet normal 1.000000e+000 -0.000000e+000 0.000000e+000
    outer loop
      vertex   -2.780000e+002 4.738500e+001 2.600000e+001
      vertex   -2.780000e+002 4.738500e+001 2.000000e+000
      vertex   -2.780000e+002 8.377000e+001 2.000000e+000
    endloop
  endfacet
  facet normal 1.000000e+000 0.000000e+000 0.000000e+000
    outer loop
      vertex   -2.780000e+002 8.377000e+001 2.600000e+001
      vertex   -2.780000e+002 4.738500e+001 2.600000e+001
      vertex   -2.780000e+002 8.377000e+001 2.000000e+000
    endloop
  endfacet
  facet normal -1.000000e+000 0.000000e+000 0.000000e+000
    outer loop
      vertex   -2.174220e+002 1.100000e+001 2.000000e+000
      vertex   -2.174220e+002 3.000000e+000 2.000000e+000
      vertex   -2.174220e+002 1.100000e+001 2.600000e+001
    endloop
  endfacet
  facet normal -1.000000e+000 -0.000000e+000 0.000000e+000
    outer loop
      vertex   -2.174220e+002 1.100000e+001 2.600000e+001
      vertex   -2.174220e+002 3.000000e+000 2.000000e+000
      vertex   -2.174220e+002 3.000000e+000 2.600000e+001
    endloop
  endfacet
  facet normal 0.000000e+000 1.000000e+000 -0.000000e+000
    outer loop
      vertex   -2.094220e+002 1.100000e+001 2.000000e+000
      vertex   -2.174220e+002 1.100000e+001 2.000000e+000
      vertex   -2.094220e+002 1.100000e+001 2.600000e+001
    endloop
  endfacet
  facet normal 0.000000e+000 1.000000e+000 -0.000000e+000
    outer loop
      vertex   -2.094220e+002 1.100000e+001 2.600000e+001
      vertex   -2.174220e+002 1.100000e+001 2.000000e+000
      vertex   -2.174220e+002 1.100000e+001 2.600000e+001
    endloop
  endfacet
  facet normal -2.865062e-001 -9.580784e-001 0.000000e+000
    outer loop
      vertex   -2.131517e+002 9.074596e+000 2.300000e+001
      vertex   -2.101242e+002 8.169236e+000 2.300000e+001
      vertex   -2.131517e+002 9.074596e+000 2.600000e+001
    endloop
  endfacet
  facet normal -2.865062e-001 -9.580784e-001 0.000000e+000
    outer loop
      vertex   -2.131517e+002 9.074596e+000 2.600000e+001
      vertex   -2.101242e+002 8.169236e+000 2.300000e+001
      vertex   -2.101242e+002 8.169236e+000 2.600000e+001
    endloop
  endfacet
  facet normal -0.000000e+000 1.000000e+000 0.000000e+000
    outer loop
      vertex   -2.700000e+002 3.000000e+000 2.600000e+001
      vertex   -2.174220e+002 3.000000e+000 2.600000e+001
      vertex   -2.700000e+002 3.000000e+000 2.000000e+000
    endloop
  endfacet
  facet normal -0.000000e+000 1.000000e+000 0.000000e+000
    outer loop
      vertex   -2.700000e+002 3.000000e+000 2.000000e+000
      vertex   -2.174220e+002 3.000000e+000 2.600000e+001
      vertex   -2.174220e+002 3.000000e+000 2.000000e+000
    endloop
  endfacet
  facet normal -1.000000e+000 -0.000000e+000 -0.000000e+000
    outer loop
      vertex   -2.780000e+002 8.944423e+001 2.300000e+001
      vertex   -2.780000e+002 8.944423e+001 0.000000e+000
      vertex   -2.780000e+002 8.899779e+001 2.300000e+001
    endloop
  endfacet
  facet normal -1.000000e+000 -0.000000e+000 -0.000000e+000
    outer loop
      vertex   -2.780000e+002 8.899779e+001 2.300000e+001
      vertex   -2.780000e+002 8.944423e+001 0.000000e+000
      vertex   -2.780000e+002 8.899779e+001 0.000000e+000
    endloop
  endfacet
  facet normal 0.000000e+000 -0.000000e+000 1.000000e+000
    outer loop
      vertex   -2.770224e+002 8.634193e+001 2.300000e+001
      vertex   -2.718860e+002 8.823260e+001 2.300000e+001
      vertex   -2.780000e+002 8.899779e+001 2.300000e+001
    endloop
  endfacet
  facet normal -0.000000e+000 0.000000e+000 1.000000e+000
    outer loop
      vertex   -2.770224e+002 8.634193e+001 2.300000e+001
      vertex   -2.739084e+002 8.580452e+001 2.300000e+001
      vertex   -2.718860e+002 8.823260e+001 2.300000e+001
    endloop
  endfacet
  facet normal 0.000000e+000 0.000000e+000 1.000000e+000
    outer loop
      vertex   -2.718860e+002 8.823260e+001 2.300000e+001
      vertex   -2.729776e+002 9.119807e+001 2.300000e+001
      vertex   -2.780000e+002 8.899779e+001 2.300000e+001
    endloop
  endfacet
  facet normal 0.000000e+000 -0.000000e+000 1.000000e+000
    outer loop
      vertex   -2.780000e+002 8.899779e+001 2.300000e+001
      vertex   -2.729776e+002 9.119807e+001 2.300000e+001
      vertex   -2.760916e+002 9.173548e+001 2.300000e+001
    endloop
  endfacet
  facet normal -0.000000e+000 0.000000e+000 1.000000e+000
    outer loop
      vertex   -2.780000e+002 8.944423e+001 2.300000e+001
      vertex   -2.780000e+002 8.899779e+001 2.300000e+001
      vertex   -2.760916e+002 9.173548e+001 2.300000e+001
    endloop
  endfacet
  facet normal -1.700644e-001 -9.854330e-001 0.000000e+000
    outer loop
      vertex   -2.760916e+002 9.173548e+001 2.300000e+001
      vertex   -2.729776e+002 9.119807e+001 2.300000e+001
      vertex   -2.760916e+002 9.173548e+001 2.600000e+001
    endloop
  endfacet
  facet normal -1.700644e-001 -9.854330e-001 0.000000e+000
    outer loop
      vertex   -2.760916e+002 9.173548e+001 2.600000e+001
      vertex   -2.729776e+002 9.119807e+001 2.300000e+001
      vertex   -2.729776e+002 9.119807e+001 2.600000e+001
    endloop
  endfacet
  facet normal -9.384422e-001 -3.454364e-001 0.000000e+000
    outer loop
      vertex   -2.729776e+002 9.119807e+001 2.300000e+001
      vertex   -2.718860e+002 8.823260e+001 2.300000e+001
      vertex   -2.729776e+002 9.119807e+001 2.600000e+001
    endloop
  endfacet
  facet normal -9.384422e-001 -3.454364e-001 0.000000e+000
    outer loop
      vertex   -2.729776e+002 9.119807e+001 2.600000e+001
      vertex   -2.718860e+002 8.823260e+001 2.300000e+001
      vertex   -2.718860e+002 8.823260e+001 2.600000e+001
    endloop
  endfacet
  facet normal -7.683778e-001 6.399965e-001 0.000000e+000
    outer loop
      vertex   -2.718860e+002 8.823260e+001 2.300000e+001
      vertex   -2.739084e+002 8.580452e+001 2.300000e+001
      vertex   -2.718860e+002 8.823260e+001 2.600000e+001
    endloop
  endfacet
  facet normal -7.683778e-001 6.399965e-001 0.000000e+000
    outer loop
      vertex   -2.718860e+002 8.823260e+001 2.600000e+001
      vertex   -2.739084e+002 8.580452e+001 2.300000e+001
      vertex   -2.739084e+002 8.580452e+001 2.600000e+001
    endloop
  endfacet
  facet normal 1.700644e-001 9.854330e-001 0.000000e+000
    outer loop
      vertex   -2.739084e+002 8.580452e+001 2.300000e+001
      vertex   -2.770224e+002 8.634193e+001 2.300000e+001
      vertex   -2.739084e+002 8.580452e+001 2.600000e+001
    endloop
  endfacet
  facet normal 1.700644e-001 9.854330e-001 -0.000000e+000
    outer loop
      vertex   -2.739084e+002 8.580452e+001 2.600000e+001
      vertex   -2.770224e+002 8.634193e+001 2.300000e+001
      vertex   -2.770224e+002 8.634193e+001 2.600000e+001
    endloop
  endfacet
  facet normal 1.000000e+000 0.000000e+000 -0.000000e+000
    outer loop
      vertex   -2.700000e+002 8.377000e+001 2.000000e+000
      vertex   -2.700000e+002 9.177000e+001 2.000000e+000
      vertex   -2.700000e+002 8.377000e+001 2.600000e+001
    endloop
  endfacet
  facet normal 1.000000e+000 -0.000000e+000 0.000000e+000
    outer loop
      vertex   -2.700000e+002 8.377000e+001 2.600000e+001
      vertex   -2.700000e+002 9.177000e+001 2.000000e+000
      vertex   -2.700000e+002 9.177000e+001 2.600000e+001
    endloop
  endfacet
  facet normal 0.000000e+000 -1.000000e+000 0.000000e+000
    outer loop
      vertex   -2.780000e+002 8.377000e+001 2.000000e+000
      vertex   -2.700000e+002 8.377000e+001 2.000000e+000
      vertex   -2.780000e+002 8.377000e+001 2.600000e+001
    endloop
  endfacet
  facet normal 0.000000e+000 -1.000000e+000 0.000000e+000
    outer loop
      vertex   -2.780000e+002 8.377000e+001 2.600000e+001
      vertex   -2.700000e+002 8.377000e+001 2.000000e+000
      vertex   -2.700000e+002 8.377000e+001 2.600000e+001
    endloop
  endfacet
  facet normal 0.000000e+000 -1.000000e+000 0.000000e+000
    outer loop
      vertex   -2.244241e+002 9.177000e+001 1.700211e+001
      vertex   -2.244241e+002 9.177000e+001 1.075211e+001
      vertex   -2.174220e+002 9.177000e+001 2.000000e+000
    endloop
  endfacet
  facet normal 0.000000e+000 -1.000000e+000 -0.000000e+000
    outer loop
      vertex   -2.174220e+002 9.177000e+001 2.600000e+001
      vertex   -2.244241e+002 9.177000e+001 1.700211e+001
      vertex   -2.174220e+002 9.177000e+001 2.000000e+000
    endloop
  endfacet
  facet normal 0.000000e+000 -1.000000e+000 -0.000000e+000
    outer loop
      vertex   -2.174220e+002 9.177000e+001 2.600000e+001
      vertex   -2.366741e+002 9.177000e+001 1.700211e+001
      vertex   -2.244241e+002 9.177000e+001 1.700211e+001
    endloop
  endfacet
  facet normal -0.000000e+000 -1.000000e+000 -0.000000e+000
    outer loop
      vertex   -2.174220e+002 9.177000e+001 2.600000e+001
      vertex   -2.700000e+002 9.177000e+001 2.600000e+001
      vertex   -2.366741e+002 9.177000e+001 1.700211e+001
    endloop
  endfacet
  facet normal -0.000000e+000 -1.000000e+000 -0.000000e+000
    outer loop
      vertex   -2.366741e+002 9.177000e+001 1.700211e+001
      vertex   -2.700000e+002 9.177000e+001 2.600000e+001
      vertex   -2.700000e+002 9.177000e+001 2.000000e+000
    endloop
  endfacet
  facet normal 0.000000e+000 -1.000000e+000 -0.000000e+000
    outer loop
      vertex   -2.366741e+002 9.177000e+001 1.075211e+001
      vertex   -2.700000e+002 9.177000e+001 2.000000e+000
      vertex   -2.174220e+002 9.177000e+001 2.000000e+000
    endloop
  endfacet
  facet normal -0.000000e+000 -1.000000e+000 -0.000000e+000
    outer loop
      vertex   -2.244241e+002 9.177000e+001 1.075211e+001
      vertex   -2.366741e+002 9.177000e+001 1.075211e+001
      vertex   -2.174220e+002 9.177000e+001 2.000000e+000
    endloop
  endfacet
  facet normal -0.000000e+000 -1.000000e+000 0.000000e+000
    outer loop
      vertex   -2.366741e+002 9.177000e+001 1.075211e+001
      vertex   -2.366741e+002 9.177000e+001 1.700211e+001
      vertex   -2.700000e+002 9.177000e+001 2.000000e+000
    endloop
  endfacet
  facet normal 1.000000e+000 -0.000000e+000 0.000000e+000
    outer loop
      vertex   -2.094220e+002 8.894909e+001 2.300000e+001
      vertex   -2.094220e+002 8.894909e+001 0.000000e+000
      vertex   -2.094220e+002 8.941402e+001 2.300000e+001
    endloop
  endfacet
  facet normal 1.000000e+000 -0.000000e+000 0.000000e+000
    outer loop
      vertex   -2.094220e+002 8.941402e+001 2.300000e+001
      vertex   -2.094220e+002 8.894909e+001 0.000000e+000
      vertex   -2.094220e+002 8.941402e+001 0.000000e+000
    endloop
  endfacet
  facet normal 0.000000e+000 0.000000e+000 1.000000e+000
    outer loop
      vertex   -2.094220e+002 8.941402e+001 2.300000e+001
      vertex   -2.112897e+002 9.172019e+001 2.300000e+001
      vertex   -2.094220e+002 8.894909e+001 2.300000e+001
    endloop
  endfacet
  facet normal 0.000000e+000 0.000000e+000 1.000000e+000
    outer loop
      vertex   -2.094220e+002 8.894909e+001 2.300000e+001
      vertex   -2.112897e+002 9.172019e+001 2.300000e+001
      vertex   -2.144108e+002 9.122565e+001 2.300000e+001
    endloop
  endfacet
  facet normal 0.000000e+000 -0.000000e+000 1.000000e+000
    outer loop
      vertex   -2.155431e+002 8.827546e+001 2.300000e+001
      vertex   -2.094220e+002 8.894909e+001 2.300000e+001
      vertex   -2.144108e+002 9.122565e+001 2.300000e+001
    endloop
  endfacet
  facet normal -0.000000e+000 0.000000e+000 1.000000e+000
    outer loop
      vertex   -2.155431e+002 8.827546e+001 2.300000e+001
      vertex   -2.104332e+002 8.631435e+001 2.300000e+001
      vertex   -2.094220e+002 8.894909e+001 2.300000e+001
    endloop
  endfacet
  facet normal -0.000000e+000 0.000000e+000 1.000000e+000
    outer loop
      vertex   -2.155431e+002 8.827546e+001 2.300000e+001
      vertex   -2.135543e+002 8.581981e+001 2.300000e+001
      vertex   -2.104332e+002 8.631435e+001 2.300000e+001
    endloop
  endfacet
  facet normal -1.564986e-001 9.876782e-001 0.000000e+000
    outer loop
      vertex   -2.104332e+002 8.631435e+001 2.300000e+001
      vertex   -2.135543e+002 8.581981e+001 2.300000e+001
      vertex   -2.104332e+002 8.631435e+001 2.600000e+001
    endloop
  endfacet
  facet normal -1.564986e-001 9.876782e-001 0.000000e+000
    outer loop
      vertex   -2.104332e+002 8.631435e+001 2.600000e+001
      vertex   -2.135543e+002 8.581981e+001 2.300000e+001
      vertex   -2.135543e+002 8.581981e+001 2.600000e+001
    endloop
  endfacet
  facet normal 7.771051e-001 6.293709e-001 0.000000e+000
    outer loop
      vertex   -2.135543e+002 8.581981e+001 2.300000e+001
      vertex   -2.155431e+002 8.827546e+001 2.300000e+001
      vertex   -2.135543e+002 8.581981e+001 2.600000e+001
    endloop
  endfacet
  facet normal 7.771051e-001 6.293709e-001 -0.000000e+000
    outer loop
      vertex   -2.135543e+002 8.581981e+001 2.600000e+001
      vertex   -2.155431e+002 8.827546e+001 2.300000e+001
      vertex   -2.155431e+002 8.827546e+001 2.600000e+001
    endloop
  endfacet
  facet normal 9.336037e-001 -3.583073e-001 0.000000e+000
    outer loop
      vertex   -2.155431e+002 8.827546e+001 2.300000e+001
      vertex   -2.144108e+002 9.122565e+001 2.300000e+001
      vertex   -2.155431e+002 8.827546e+001 2.600000e+001
    endloop
  endfacet
  facet normal 9.336037e-001 -3.583073e-001 0.000000e+000
    outer loop
      vertex   -2.155431e+002 8.827546e+001 2.600000e+001
      vertex   -2.144108e+002 9.122565e+001 2.300000e+001
      vertex   -2.144108e+002 9.122565e+001 2.600000e+001
    endloop
  endfacet
  facet normal 1.564986e-001 -9.876782e-001 0.000000e+000
    outer loop
      vertex   -2.144108e+002 9.122565e+001 2.300000e+001
      vertex   -2.112897e+002 9.172019e+001 2.300000e+001
      vertex   -2.144108e+002 9.122565e+001 2.600000e+001
    endloop
  endfacet
  facet normal 1.564986e-001 -9.876782e-001 0.000000e+000
    outer loop
      vertex   -2.144108e+002 9.122565e+001 2.600000e+001
      vertex   -2.112897e+002 9.172019e+001 2.300000e+001
      vertex   -2.112897e+002 9.172019e+001 2.600000e+001
    endloop
  endfacet
  facet normal 0.000000e+000 -1.000000e+000 0.000000e+000
    outer loop
      vertex   -2.174220e+002 8.377000e+001 2.000000e+000
      vertex   -2.094220e+002 8.377000e+001 2.000000e+000
      vertex   -2.174220e+002 8.377000e+001 2.600000e+001
    endloop
  endfacet
  facet normal 0.000000e+000 -1.000000e+000 0.000000e+000
    outer loop
      vertex   -2.174220e+002 8.377000e+001 2.600000e+001
      vertex   -2.094220e+002 8.377000e+001 2.000000e+000
      vertex   -2.094220e+002 8.377000e+001 2.600000e+001
    endloop
  endfacet
  facet normal -1.000000e+000 0.000000e+000 0.000000e+000
    outer loop
      vertex   -2.174220e+002 9.177000e+001 2.000000e+000
      vertex   -2.174220e+002 8.377000e+001 2.000000e+000
      vertex   -2.174220e+002 9.177000e+001 2.600000e+001
    endloop
  endfacet
  facet normal -1.000000e+000 -0.000000e+000 0.000000e+000
    outer loop
      vertex   -2.174220e+002 9.177000e+001 2.600000e+001
      vertex   -2.174220e+002 8.377000e+001 2.000000e+000
      vertex   -2.174220e+002 8.377000e+001 2.600000e+001
    endloop
  endfacet
  facet normal -1.000000e+000 0.000000e+000 -0.000000e+000
    outer loop
      vertex   -2.094220e+002 1.100000e+001 2.600000e+001
      vertex   -2.094220e+002 4.738500e+001 2.600000e+001
      vertex   -2.094220e+002 1.100000e+001 2.000000e+000
    endloop
  endfacet
  facet normal -1.000000e+000 0.000000e+000 0.000000e+000
    outer loop
      vertex   -2.094220e+002 1.100000e+001 2.000000e+000
      vertex   -2.094220e+002 4.738500e+001 2.600000e+001
      vertex   -2.094220e+002 5.800000e+001 2.000000e+001
    endloop
  endfacet
  facet normal -1.000000e+000 0.000000e+000 0.000000e+000
    outer loop
      vertex   -2.094220e+002 5.800000e+001 2.000000e+000
      vertex   -2.094220e+002 1.100000e+001 2.000000e+000
      vertex   -2.094220e+002 5.800000e+001 2.000000e+001
    endloop
  endfacet
  facet normal -1.000000e+000 0.000000e+000 0.000000e+000
    outer loop
      vertex   -2.094220e+002 5.800000e+001 2.000000e+001
      vertex   -2.094220e+002 4.738500e+001 2.600000e+001
      vertex   -2.094220e+002 7.000000e+001 2.000000e+001
    endloop
  endfacet
  facet normal -1.000000e+000 0.000000e+000 0.000000e+000
    outer loop
      vertex   -2.094220e+002 7.000000e+001 2.000000e+001
      vertex   -2.094220e+002 4.738500e+001 2.600000e+001
      vertex   -2.094220e+002 8.377000e+001 2.600000e+001
    endloop
  endfacet
  facet normal -1.000000e+000 0.000000e+000 0.000000e+000
    outer loop
      vertex   -2.094220e+002 8.377000e+001 2.000000e+000
      vertex   -2.094220e+002 7.000000e+001 2.000000e+001
      vertex   -2.094220e+002 8.377000e+001 2.600000e+001
    endloop
  endfacet
  facet normal -1.000000e+000 0.000000e+000 0.000000e+000
    outer loop
      vertex   -2.094220e+002 8.377000e+001 2.000000e+000
      vertex   -2.094220e+002 7.000000e+001 2.000000e+000
      vertex   -2.094220e+002 7.000000e+001 2.000000e+001
    endloop
  endfacet
  facet normal 0.000000e+000 0.000000e+000 -1.000000e+000
    outer loop
      vertex   -2.244241e+002 9.177000e+001 1.700211e+001
      vertex   -2.366741e+002 9.177000e+001 1.700211e+001
      vertex   -2.244241e+002 9.377000e+001 1.700211e+001
    endloop
  endfacet
  facet normal -0.000000e+000 0.000000e+000 -1.000000e+000
    outer loop
      vertex   -2.244241e+002 9.377000e+001 1.700211e+001
      vertex   -2.366741e+002 9.177000e+001 1.700211e+001
      vertex   -2.366741e+002 9.377000e+001 1.700211e+001
    endloop
  endfacet
  facet normal -1.000000e+000 0.000000e+000 0.000000e+000
    outer loop
      vertex   -2.244241e+002 9.177000e+001 1.075211e+001
      vertex   -2.244241e+002 9.177000e+001 1.700211e+001
      vertex   -2.244241e+002 9.377000e+001 1.075211e+001
    endloop
  endfacet
  facet normal -1.000000e+000 0.000000e+000 0.000000e+000
    outer loop
      vertex   -2.244241e+002 9.377000e+001 1.075211e+001
      vertex   -2.244241e+002 9.177000e+001 1.700211e+001
      vertex   -2.244241e+002 9.377000e+001 1.700211e+001
    endloop
  endfacet
  facet normal 0.000000e+000 -0.000000e+000 1.000000e+000
    outer loop
      vertex   -2.366741e+002 9.177000e+001 1.075211e+001
      vertex   -2.244241e+002 9.177000e+001 1.075211e+001
      vertex   -2.366741e+002 9.377000e+001 1.075211e+001
    endloop
  endfacet
  facet normal -0.000000e+000 0.000000e+000 1.000000e+000
    outer loop
      vertex   -2.366741e+002 9.377000e+001 1.075211e+001
      vertex   -2.244241e+002 9.177000e+001 1.075211e+001
      vertex   -2.244241e+002 9.377000e+001 1.075211e+001
    endloop
  endfacet
  facet normal 1.000000e+000 -0.000000e+000 0.000000e+000
    outer loop
      vertex   -2.366741e+002 9.177000e+001 1.700211e+001
      vertex   -2.366741e+002 9.177000e+001 1.075211e+001
      vertex   -2.366741e+002 9.377000e+001 1.700211e+001
    endloop
  endfacet
  facet normal 1.000000e+000 -0.000000e+000 0.000000e+000
    outer loop
      vertex   -2.366741e+002 9.377000e+001 1.700211e+001
      vertex   -2.366741e+002 9.177000e+001 1.075211e+001
      vertex   -2.366741e+002 9.377000e+001 1.075211e+001
    endloop
  endfacet
  facet normal 1.000000e+000 0.000000e+000 0.000000e+000
    outer loop
      vertex   -2.144220e+002 7.000000e+001 2.000000e+000
      vertex   -2.144220e+002 5.800000e+001 2.000000e+000
      vertex   -2.144220e+002 7.000000e+001 0.000000e+000
    endloop
  endfacet
  facet normal 1.000000e+000 0.000000e+000 0.000000e+000
    outer loop
      vertex   -2.144220e+002 7.000000e+001 0.000000e+000
      vertex   -2.144220e+002 5.800000e+001 2.000000e+000
      vertex   -2.144220e+002 5.800000e+001 0.000000e+000
    endloop
  endfacet
  facet normal -0.000000e+000 1.000000e+000 0.000000e+000
    outer loop
      vertex   -2.094220e+002 5.800000e+001 2.000000e+001
      vertex   -2.074220e+002 5.800000e+001 2.000000e+001
      vertex   -2.094220e+002 5.800000e+001 2.000000e+000
    endloop
  endfacet
  facet normal -0.000000e+000 1.000000e+000 0.000000e+000
    outer loop
      vertex   -2.094220e+002 5.800000e+001 2.000000e+000
      vertex   -2.074220e+002 5.800000e+001 2.000000e+001
      vertex   -2.074220e+002 5.800000e+001 0.000000e+000
    endloop
  endfacet
  facet normal -0.000000e+000 1.000000e+000 0.000000e+000
    outer loop
      vertex   -2.144220e+002 5.800000e+001 0.000000e+000
      vertex   -2.094220e+002 5.800000e+001 2.000000e+000
      vertex   -2.074220e+002 5.800000e+001 0.000000e+000
    endloop
  endfacet
  facet normal 0.000000e+000 1.000000e+000 0.000000e+000
    outer loop
      vertex   -2.144220e+002 5.800000e+001 0.000000e+000
      vertex   -2.144220e+002 5.800000e+001 2.000000e+000
      vertex   -2.094220e+002 5.800000e+001 2.000000e+000
    endloop
  endfacet
  facet normal 0.000000e+000 -1.000000e+000 0.000000e+000
    outer loop
      vertex   -2.144220e+002 7.000000e+001 0.000000e+000
      vertex   -2.074220e+002 7.000000e+001 0.000000e+000
      vertex   -2.094220e+002 7.000000e+001 2.000000e+000
    endloop
  endfacet
  facet normal 0.000000e+000 -1.000000e+000 0.000000e+000
    outer loop
      vertex   -2.144220e+002 7.000000e+001 2.000000e+000
      vertex   -2.144220e+002 7.000000e+001 0.000000e+000
      vertex   -2.094220e+002 7.000000e+001 2.000000e+000
    endloop
  endfacet
  facet normal 0.000000e+000 -1.000000e+000 0.000000e+000
    outer loop
      vertex   -2.094220e+002 7.000000e+001 2.000000e+001
      vertex   -2.094220e+002 7.000000e+001 2.000000e+000
      vertex   -2.074220e+002 7.000000e+001 2.000000e+001
    endloop
  endfacet
  facet normal 0.000000e+000 -1.000000e+000 -0.000000e+000
    outer loop
      vertex   -2.074220e+002 7.000000e+001 2.000000e+001
      vertex   -2.094220e+002 7.000000e+001 2.000000e+000
      vertex   -2.074220e+002 7.000000e+001 0.000000e+000
    endloop
  endfacet
  facet normal -0.000000e+000 -0.000000e+000 -1.000000e+000
    outer loop
      vertex   -2.074220e+002 7.000000e+001 2.000000e+001
      vertex   -2.074220e+002 5.800000e+001 2.000000e+001
      vertex   -2.094220e+002 7.000000e+001 2.000000e+001
    endloop
  endfacet
  facet normal -0.000000e+000 -0.000000e+000 -1.000000e+000
    outer loop
      vertex   -2.094220e+002 7.000000e+001 2.000000e+001
      vertex   -2.074220e+002 5.800000e+001 2.000000e+001
      vertex   -2.094220e+002 5.800000e+001 2.000000e+001
    endloop
  endfacet
  facet normal -0.000000e+000 -0.000000e+000 -1.000000e+000
    outer loop
      vertex   -2.116923e+002 2.925404e+000 0.000000e+000
      vertex   -2.074220e+002 1.000000e+000 0.000000e+000
      vertex   -2.119417e+002 3.000000e+000 0.000000e+000
    endloop
  endfacet
  facet normal 0.000000e+000 0.000000e+000 -1.000000e+000
    outer loop
      vertex   -2.116923e+002 2.925404e+000 0.000000e+000
      vertex   -2.116133e+002 3.000000e+000 0.000000e+000
      vertex   -2.074220e+002 1.000000e+000 0.000000e+000
    endloop
  endfacet
  facet normal 0.000000e+000 0.000000e+000 -1.000000e+000
    outer loop
      vertex   -2.074220e+002 1.000000e+000 0.000000e+000
      vertex   -2.116133e+002 3.000000e+000 0.000000e+000
      vertex   -2.094220e+002 5.068653e+000 0.000000e+000
    endloop
  endfacet
  facet normal -0.000000e+000 -0.000000e+000 -1.000000e+000
    outer loop
      vertex   -2.093945e+002 5.094640e+000 0.000000e+000
      vertex   -2.074220e+002 1.000000e+000 0.000000e+000
      vertex   -2.094220e+002 5.068653e+000 0.000000e+000
    endloop
  endfacet
  facet normal 0.000000e+000 0.000000e+000 -1.000000e+000
    outer loop
      vertex   -2.093945e+002 5.094640e+000 0.000000e+000
      vertex   -2.094220e+002 5.210628e+000 0.000000e+000
      vertex   -2.074220e+002 1.000000e+000 0.000000e+000
    endloop
  endfacet
  facet normal 0.000000e+000 0.000000e+000 -1.000000e+000
    outer loop
      vertex   -2.074220e+002 1.000000e+000 0.000000e+000
      vertex   -2.094220e+002 5.210628e+000 0.000000e+000
      vertex   -2.074220e+002 2.950000e+001 0.000000e+000
    endloop
  endfacet
  facet normal 0.000000e+000 0.000000e+000 -1.000000e+000
    outer loop
      vertex   -2.074220e+002 2.950000e+001 0.000000e+000
      vertex   -2.094220e+002 5.210628e+000 0.000000e+000
      vertex   -2.119417e+002 3.000000e+000 0.000000e+000
    endloop
  endfacet
  facet normal 0.000000e+000 -0.000000e+000 -1.000000e+000
    outer loop
      vertex   -2.437110e+002 5.093302e+000 0.000000e+000
      vertex   -2.119417e+002 3.000000e+000 0.000000e+000
      vertex   -2.437110e+002 2.934276e+000 0.000000e+000
    endloop
  endfacet
  facet normal 0.000000e+000 0.000000e+000 -1.000000e+000
    outer loop
      vertex   -2.755934e+002 3.000000e+000 0.000000e+000
      vertex   -2.437110e+002 2.934276e+000 0.000000e+000
      vertex   -2.437110e+002 1.000000e+000 0.000000e+000
    endloop
  endfacet
  facet normal 0.000000e+000 0.000000e+000 -1.000000e+000
    outer loop
      vertex   -2.800000e+002 1.000000e+000 0.000000e+000
      vertex   -2.755934e+002 3.000000e+000 0.000000e+000
      vertex   -2.437110e+002 1.000000e+000 0.000000e+000
    endloop
  endfacet
  facet normal 0.000000e+000 0.000000e+000 -1.000000e+000
    outer loop
      vertex   -2.800000e+002 1.000000e+000 0.000000e+000
      vertex   -2.758009e+002 2.943167e+000 0.000000e+000
      vertex   -2.755934e+002 3.000000e+000 0.000000e+000
    endloop
  endfacet
  facet normal 0.000000e+000 0.000000e+000 -1.000000e+000
    outer loop
      vertex   -2.800000e+002 1.000000e+000 0.000000e+000
      vertex   -2.758583e+002 3.000000e+000 0.000000e+000
      vertex   -2.758009e+002 2.943167e+000 0.000000e+000
    endloop
  endfacet
  facet normal 0.000000e+000 0.000000e+000 -1.000000e+000
    outer loop
      vertex   -2.800000e+002 1.000000e+000 0.000000e+000
      vertex   -2.780000e+002 5.117952e+000 0.000000e+000
      vertex   -2.758583e+002 3.000000e+000 0.000000e+000
    endloop
  endfacet
  facet normal 0.000000e+000 0.000000e+000 -1.000000e+000
    outer loop
      vertex   -2.800000e+002 1.000000e+000 0.000000e+000
      vertex   -2.780477e+002 5.165147e+000 0.000000e+000
      vertex   -2.780000e+002 5.117952e+000 0.000000e+000
    endloop
  endfacet
  facet normal 0.000000e+000 -0.000000e+000 -1.000000e+000
    outer loop
      vertex   -2.800000e+002 1.000000e+000 0.000000e+000
      vertex   -2.780000e+002 5.347306e+000 0.000000e+000
      vertex   -2.780477e+002 5.165147e+000 0.000000e+000
    endloop
  endfacet
  facet normal 0.000000e+000 0.000000e+000 -1.000000e+000
    outer loop
      vertex   -2.800000e+002 1.000000e+000 0.000000e+000
      vertex   -2.800000e+002 4.738500e+001 0.000000e+000
      vertex   -2.780000e+002 5.347306e+000 0.000000e+000
    endloop
  endfacet
  facet normal 0.000000e+000 0.000000e+000 -1.000000e+000
    outer loop
      vertex   -2.780000e+002 5.347306e+000 0.000000e+000
      vertex   -2.800000e+002 4.738500e+001 0.000000e+000
      vertex   -2.755934e+002 3.000000e+000 0.000000e+000
    endloop
  endfacet
  facet normal 0.000000e+000 0.000000e+000 -1.000000e+000
    outer loop
      vertex   -2.758583e+002 3.000000e+000 0.000000e+000
      vertex   -2.780000e+002 5.347306e+000 0.000000e+000
      vertex   -2.755934e+002 3.000000e+000 0.000000e+000
    endloop
  endfacet
  facet normal 0.000000e+000 0.000000e+000 -1.000000e+000
    outer loop
      vertex   -2.758583e+002 3.000000e+000 0.000000e+000
      vertex   -2.780000e+002 5.117952e+000 0.000000e+000
      vertex   -2.780000e+002 5.347306e+000 0.000000e+000
    endloop
  endfacet
  facet normal -0.000000e+000 0.000000e+000 -1.000000e+000
    outer loop
      vertex   -2.094220e+002 5.068653e+000 0.000000e+000
      vertex   -2.116133e+002 3.000000e+000 0.000000e+000
      vertex   -2.094220e+002 5.210628e+000 0.000000e+000
    endloop
  endfacet
  facet normal -0.000000e+000 0.000000e+000 -1.000000e+000
    outer loop
      vertex   -2.094220e+002 5.210628e+000 0.000000e+000
      vertex   -2.116133e+002 3.000000e+000 0.000000e+000
      vertex   -2.119417e+002 3.000000e+000 0.000000e+000
    endloop
  endfacet
  facet normal 0.000000e+000 0.000000e+000 -1.000000e+000
    outer loop
      vertex   -2.781140e+002 8.930740e+001 0.000000e+000
      vertex   -2.800000e+002 9.377000e+001 0.000000e+000
      vertex   -2.780000e+002 8.944423e+001 0.000000e+000
    endloop
  endfacet
  facet normal -0.000000e+000 0.000000e+000 -1.000000e+000
    outer loop
      vertex   -2.781140e+002 8.930740e+001 0.000000e+000
      vertex   -2.800000e+002 4.738500e+001 0.000000e+000
      vertex   -2.800000e+002 9.377000e+001 0.000000e+000
    endloop
  endfacet
  facet normal 0.000000e+000 -0.000000e+000 -1.000000e+000
    outer loop
      vertex   -2.781140e+002 8.930740e+001 0.000000e+000
      vertex   -2.780000e+002 8.899779e+001 0.000000e+000
      vertex   -2.800000e+002 4.738500e+001 0.000000e+000
    endloop
  endfacet
  facet normal 0.000000e+000 0.000000e+000 -1.000000e+000
    outer loop
      vertex   -2.800000e+002 4.738500e+001 0.000000e+000
      vertex   -2.780000e+002 8.899779e+001 0.000000e+000
      vertex   -2.437110e+002 4.738500e+001 0.000000e+000
    endloop
  endfacet
  facet normal 0.000000e+000 0.000000e+000 -1.000000e+000
    outer loop
      vertex   -2.755934e+002 3.000000e+000 0.000000e+000
      vertex   -2.437110e+002 4.738500e+001 0.000000e+000
      vertex   -2.437110e+002 5.093302e+000 0.000000e+000
    endloop
  endfacet
  facet normal 0.000000e+000 0.000000e+000 -1.000000e+000
    outer loop
      vertex   -2.437110e+002 2.934276e+000 0.000000e+000
      vertex   -2.755934e+002 3.000000e+000 0.000000e+000
      vertex   -2.437110e+002 5.093302e+000 0.000000e+000
    endloop
  endfacet
  facet normal 0.000000e+000 0.000000e+000 -1.000000e+000
    outer loop
      vertex   -2.437110e+002 4.738500e+001 0.000000e+000
      vertex   -2.780000e+002 8.899779e+001 0.000000e+000
      vertex   -2.437110e+002 8.897344e+001 0.000000e+000
    endloop
  endfacet
  facet normal 0.000000e+000 0.000000e+000 -1.000000e+000
    outer loop
      vertex   -2.144220e+002 7.000000e+001 0.000000e+000
      vertex   -2.437110e+002 8.897344e+001 0.000000e+000
      vertex   -2.094220e+002 8.894909e+001 0.000000e+000
    endloop
  endfacet
  facet normal 0.000000e+000 0.000000e+000 -1.000000e+000
    outer loop
      vertex   -2.074220e+002 7.000000e+001 0.000000e+000
      vertex   -2.094220e+002 8.894909e+001 0.000000e+000
      vertex   -2.093009e+002 8.926454e+001 0.000000e+000
    endloop
  endfacet
  facet normal -0.000000e+000 0.000000e+000 -1.000000e+000
    outer loop
      vertex   -2.074220e+002 9.377000e+001 0.000000e+000
      vertex   -2.093009e+002 8.926454e+001 0.000000e+000
      vertex   -2.094220e+002 8.941402e+001 0.000000e+000
    endloop
  endfacet
  facet normal 0.000000e+000 -0.000000e+000 -1.000000e+000
    outer loop
      vertex   -2.437110e+002 9.377000e+001 0.000000e+000
      vertex   -2.094220e+002 8.941402e+001 0.000000e+000
      vertex   -2.437110e+002 8.897344e+001 0.000000e+000
    endloop
  endfacet
  facet normal -0.000000e+000 -0.000000e+000 -1.000000e+000
    outer loop
      vertex   -2.780000e+002 8.944423e+001 0.000000e+000
      vertex   -2.437110e+002 8.897344e+001 0.000000e+000
      vertex   -2.780000e+002 8.899779e+001 0.000000e+000
    endloop
  endfacet
  facet normal 0.000000e+000 0.000000e+000 -1.000000e+000
    outer loop
      vertex   -2.780000e+002 8.944423e+001 0.000000e+000
      vertex   -2.437110e+002 9.377000e+001 0.000000e+000
      vertex   -2.437110e+002 8.897344e+001 0.000000e+000
    endloop
  endfacet
  facet normal 0.000000e+000 0.000000e+000 -1.000000e+000
    outer loop
      vertex   -2.780000e+002 8.944423e+001 0.000000e+000
      vertex   -2.800000e+002 9.377000e+001 0.000000e+000
      vertex   -2.437110e+002 9.377000e+001 0.000000e+000
    endloop
  endfacet
  facet normal 0.000000e+000 0.000000e+000 -1.000000e+000
    outer loop
      vertex   -2.144220e+002 7.000000e+001 0.000000e+000
      vertex   -2.094220e+002 8.894909e+001 0.000000e+000
      vertex   -2.074220e+002 7.000000e+001 0.000000e+000
    endloop
  endfacet
  facet normal 0.000000e+000 0.000000e+000 -1.000000e+000
    outer loop
      vertex   -2.437110e+002 8.897344e+001 0.000000e+000
      vertex   -2.094220e+002 8.941402e+001 0.000000e+000
      vertex   -2.094220e+002 8.894909e+001 0.000000e+000
    endloop
  endfacet
  facet normal 0.000000e+000 0.000000e+000 -1.000000e+000
    outer loop
      vertex   -2.074220e+002 7.000000e+001 0.000000e+000
      vertex   -2.093009e+002 8.926454e+001 0.000000e+000
      vertex   -2.074220e+002 9.377000e+001 0.000000e+000
    endloop
  endfacet
  facet normal 0.000000e+000 -0.000000e+000 -1.000000e+000
    outer loop
      vertex   -2.437110e+002 8.897344e+001 0.000000e+000
      vertex   -2.144220e+002 7.000000e+001 0.000000e+000
      vertex   -2.437110e+002 4.738500e+001 0.000000e+000
    endloop
  endfacet
  facet normal 0.000000e+000 0.000000e+000 -1.000000e+000
    outer loop
      vertex   -2.437110e+002 4.738500e+001 0.000000e+000
      vertex   -2.144220e+002 7.000000e+001 0.000000e+000
      vertex   -2.144220e+002 5.800000e+001 0.000000e+000
    endloop
  endfacet
  facet normal 0.000000e+000 0.000000e+000 -1.000000e+000
    outer loop
      vertex   -2.074220e+002 2.950000e+001 0.000000e+000
      vertex   -2.144220e+002 5.800000e+001 0.000000e+000
      vertex   -2.074220e+002 5.800000e+001 0.000000e+000
    endloop
  endfacet
  facet normal 0.000000e+000 0.000000e+000 -1.000000e+000
    outer loop
      vertex   -2.074220e+002 2.950000e+001 0.000000e+000
      vertex   -2.437110e+002 4.738500e+001 0.000000e+000
      vertex   -2.144220e+002 5.800000e+001 0.000000e+000
    endloop
  endfacet
  facet normal -0.000000e+000 0.000000e+000 -1.000000e+000
    outer loop
      vertex   -2.074220e+002 2.950000e+001 0.000000e+000
      vertex   -2.437110e+002 5.093302e+000 0.000000e+000
      vertex   -2.437110e+002 4.738500e+001 0.000000e+000
    endloop
  endfacet
  facet normal -0.000000e+000 0.000000e+000 -1.000000e+000
    outer loop
      vertex   -2.074220e+002 2.950000e+001 0.000000e+000
      vertex   -2.119417e+002 3.000000e+000 0.000000e+000
      vertex   -2.437110e+002 5.093302e+000 0.000000e+000
    endloop
  endfacet
  facet normal 0.000000e+000 0.000000e+000 -1.000000e+000
    outer loop
      vertex   -2.074220e+002 1.000000e+000 0.000000e+000
      vertex   -2.437110e+002 1.000000e+000 0.000000e+000
      vertex   -2.119417e+002 3.000000e+000 0.000000e+000
    endloop
  endfacet
  facet normal -0.000000e+000 0.000000e+000 -1.000000e+000
    outer loop
      vertex   -2.119417e+002 3.000000e+000 0.000000e+000
      vertex   -2.437110e+002 1.000000e+000 0.000000e+000
      vertex   -2.437110e+002 2.934276e+000 0.000000e+000
    endloop
  endfacet
  facet normal 0.000000e+000 -0.000000e+000 -1.000000e+000
    outer loop
      vertex   -2.437110e+002 9.377000e+001 0.000000e+000
      vertex   -2.074220e+002 9.377000e+001 0.000000e+000
      vertex   -2.094220e+002 8.941402e+001 0.000000e+000
    endloop
  endfacet
  facet normal -0.000000e+000 0.000000e+000 -1.000000e+000
    outer loop
      vertex   -2.437110e+002 4.738500e+001 0.000000e+000
      vertex   -2.755934e+002 3.000000e+000 0.000000e+000
      vertex   -2.800000e+002 4.738500e+001 0.000000e+000
    endloop
  endfacet
  facet normal -8.881803e-017 0.000000e+000 1.000000e+000
    outer loop
      vertex   -2.094220e+002 5.800000e+001 2.000000e+000
      vertex   -2.144220e+002 5.800000e+001 2.000000e+000
      vertex   -2.094220e+002 1.100000e+001 2.000000e+000
    endloop
  endfacet
  facet normal 0.000000e+000 9.448707e-018 1.000000e+000
    outer loop
      vertex   -2.094220e+002 1.100000e+001 2.000000e+000
      vertex   -2.144220e+002 5.800000e+001 2.000000e+000
      vertex   -2.174220e+002 1.100000e+001 2.000000e+000
    endloop
  endfacet
  facet normal 1.201586e-017 8.681734e-018 1.000000e+000
    outer loop
      vertex   -2.174220e+002 1.100000e+001 2.000000e+000
      vertex   -2.144220e+002 5.800000e+001 2.000000e+000
      vertex   -2.437110e+002 4.738500e+001 2.000000e+000
    endloop
  endfacet
  facet normal 0.000000e+000 -0.000000e+000 1.000000e+000
    outer loop
      vertex   -2.700000e+002 1.100000e+001 2.000000e+000
      vertex   -2.437110e+002 4.738500e+001 2.000000e+000
      vertex   -2.780000e+002 4.738500e+001 2.000000e+000
    endloop
  endfacet
  facet normal 0.000000e+000 -0.000000e+000 1.000000e+000
    outer loop
      vertex   -2.780000e+002 1.100000e+001 2.000000e+000
      vertex   -2.700000e+002 1.100000e+001 2.000000e+000
      vertex   -2.780000e+002 4.738500e+001 2.000000e+000
    endloop
  endfacet
  facet normal 2.857465e-017 -3.700743e-017 1.000000e+000
    outer loop
      vertex   -2.144220e+002 5.800000e+001 2.000000e+000
      vertex   -2.144220e+002 7.000000e+001 2.000000e+000
      vertex   -2.437110e+002 4.738500e+001 2.000000e+000
    endloop
  endfacet
  facet normal 0.000000e+000 -0.000000e+000 1.000000e+000
    outer loop
      vertex   -2.437110e+002 4.738500e+001 2.000000e+000
      vertex   -2.144220e+002 7.000000e+001 2.000000e+000
      vertex   -2.174220e+002 8.377000e+001 2.000000e+000
    endloop
  endfacet
  facet normal 0.000000e+000 -0.000000e+000 1.000000e+000
    outer loop
      vertex   -2.700000e+002 8.377000e+001 2.000000e+000
      vertex   -2.174220e+002 8.377000e+001 2.000000e+000
      vertex   -2.700000e+002 9.177000e+001 2.000000e+000
    endloop
  endfacet
  facet normal -0.000000e+000 0.000000e+000 1.000000e+000
    outer loop
      vertex   -2.700000e+002 8.377000e+001 2.000000e+000
      vertex   -2.437110e+002 4.738500e+001 2.000000e+000
      vertex   -2.174220e+002 8.377000e+001 2.000000e+000
    endloop
  endfacet
  facet normal -0.000000e+000 0.000000e+000 1.000000e+000
    outer loop
      vertex   -2.700000e+002 8.377000e+001 2.000000e+000
      vertex   -2.780000e+002 4.738500e+001 2.000000e+000
      vertex   -2.437110e+002 4.738500e+001 2.000000e+000
    endloop
  endfacet
  facet normal 0.000000e+000 0.000000e+000 1.000000e+000
    outer loop
      vertex   -2.700000e+002 8.377000e+001 2.000000e+000
      vertex   -2.780000e+002 8.377000e+001 2.000000e+000
      vertex   -2.780000e+002 4.738500e+001 2.000000e+000
    endloop
  endfacet
  facet normal 0.000000e+000 -0.000000e+000 1.000000e+000
    outer loop
      vertex   -2.094220e+002 7.000000e+001 2.000000e+000
      vertex   -2.094220e+002 8.377000e+001 2.000000e+000
      vertex   -2.144220e+002 7.000000e+001 2.000000e+000
    endloop
  endfacet
  facet normal 0.000000e+000 -0.000000e+000 1.000000e+000
    outer loop
      vertex   -2.144220e+002 7.000000e+001 2.000000e+000
      vertex   -2.094220e+002 8.377000e+001 2.000000e+000
      vertex   -2.174220e+002 8.377000e+001 2.000000e+000
    endloop
  endfacet
  facet normal 0.000000e+000 -0.000000e+000 1.000000e+000
    outer loop
      vertex   -2.174220e+002 8.377000e+001 2.000000e+000
      vertex   -2.174220e+002 9.177000e+001 2.000000e+000
      vertex   -2.700000e+002 9.177000e+001 2.000000e+000
    endloop
  endfacet
  facet normal 0.000000e+000 -0.000000e+000 1.000000e+000
    outer loop
      vertex   -2.700000e+002 3.000000e+000 2.000000e+000
      vertex   -2.174220e+002 3.000000e+000 2.000000e+000
      vertex   -2.700000e+002 1.100000e+001 2.000000e+000
    endloop
  endfacet
  facet normal -0.000000e+000 0.000000e+000 1.000000e+000
    outer loop
      vertex   -2.700000e+002 1.100000e+001 2.000000e+000
      vertex   -2.174220e+002 3.000000e+000 2.000000e+000
      vertex   -2.174220e+002 1.100000e+001 2.000000e+000
    endloop
  endfacet
  facet normal -0.000000e+000 0.000000e+000 1.000000e+000
    outer loop
      vertex   -2.437110e+002 4.738500e+001 2.000000e+000
      vertex   -2.700000e+002 1.100000e+001 2.000000e+000
      vertex   -2.174220e+002 1.100000e+001 2.000000e+000
    endloop
  endfacet
  facet normal 1.000000e+000 0.000000e+000 -0.000000e+000
    outer loop
      vertex   -2.074220e+002 7.000000e+001 0.000000e+000
      vertex   -2.074220e+002 9.377000e+001 0.000000e+000
      vertex   -2.074220e+002 7.000000e+001 2.000000e+001
    endloop
  endfacet
  facet normal 1.000000e+000 -0.000000e+000 0.000000e+000
    outer loop
      vertex   -2.074220e+002 7.000000e+001 2.000000e+001
      vertex   -2.074220e+002 9.377000e+001 0.000000e+000
      vertex   -2.074220e+002 9.377000e+001 2.200000e+001
    endloop
  endfacet
  facet normal 1.000000e+000 -0.000000e+000 0.000000e+000
    outer loop
      vertex   -2.074220e+002 4.738500e+001 2.200000e+001
      vertex   -2.074220e+002 7.000000e+001 2.000000e+001
      vertex   -2.074220e+002 9.377000e+001 2.200000e+001
    endloop
  endfacet
  facet normal 1.000000e+000 -0.000000e+000 0.000000e+000
    outer loop
      vertex   -2.074220e+002 4.738500e+001 2.200000e+001
      vertex   -2.074220e+002 5.800000e+001 2.000000e+001
      vertex   -2.074220e+002 7.000000e+001 2.000000e+001
    endloop
  endfacet
  facet normal 1.000000e+000 -0.000000e+000 0.000000e+000
    outer loop
      vertex   -2.074220e+002 4.738500e+001 2.200000e+001
      vertex   -2.074220e+002 2.950000e+001 0.000000e+000
      vertex   -2.074220e+002 5.800000e+001 2.000000e+001
    endloop
  endfacet
  facet normal 1.000000e+000 0.000000e+000 0.000000e+000
    outer loop
      vertex   -2.074220e+002 4.738500e+001 2.200000e+001
      vertex   -2.074220e+002 1.000000e+000 2.200000e+001
      vertex   -2.074220e+002 2.950000e+001 0.000000e+000
    endloop
  endfacet
  facet normal 1.000000e+000 0.000000e+000 0.000000e+000
    outer loop
      vertex   -2.074220e+002 2.950000e+001 0.000000e+000
      vertex   -2.074220e+002 1.000000e+000 2.200000e+001
      vertex   -2.074220e+002 1.000000e+000 0.000000e+000
    endloop
  endfacet
  facet normal 1.000000e+000 0.000000e+000 0.000000e+000
    outer loop
      vertex   -2.074220e+002 2.950000e+001 0.000000e+000
      vertex   -2.074220e+002 5.800000e+001 0.000000e+000
      vertex   -2.074220e+002 5.800000e+001 2.000000e+001
    endloop
  endfacet
  facet normal 0.000000e+000 -1.000000e+000 0.000000e+000
    outer loop
      vertex   -2.800000e+002 1.000000e+000 0.000000e+000
      vertex   -2.437110e+002 1.000000e+000 0.000000e+000
      vertex   -2.800000e+002 1.000000e+000 2.200000e+001
    endloop
  endfacet
  facet normal 0.000000e+000 -1.000000e+000 0.000000e+000
    outer loop
      vertex   -2.800000e+002 1.000000e+000 2.200000e+001
      vertex   -2.437110e+002 1.000000e+000 0.000000e+000
      vertex   -2.437110e+002 1.000000e+000 2.200000e+001
    endloop
  endfacet
  facet normal 0.000000e+000 -1.000000e+000 0.000000e+000
    outer loop
      vertex   -2.437110e+002 1.000000e+000 2.200000e+001
      vertex   -2.437110e+002 1.000000e+000 0.000000e+000
      vertex   -2.074220e+002 1.000000e+000 0.000000e+000
    endloop
  endfacet
  facet normal -0.000000e+000 -1.000000e+000 -0.000000e+000
    outer loop
      vertex   -2.074220e+002 1.000000e+000 2.200000e+001
      vertex   -2.437110e+002 1.000000e+000 2.200000e+001
      vertex   -2.074220e+002 1.000000e+000 0.000000e+000
    endloop
  endfacet
  facet normal -1.000000e+000 0.000000e+000 0.000000e+000
    outer loop
      vertex   -2.800000e+002 9.377000e+001 0.000000e+000
      vertex   -2.800000e+002 4.738500e+001 0.000000e+000
      vertex   -2.800000e+002 9.377000e+001 2.200000e+001
    endloop
  endfacet
  facet normal -1.000000e+000 -0.000000e+000 0.000000e+000
    outer loop
      vertex   -2.800000e+002 9.377000e+001 2.200000e+001
      vertex   -2.800000e+002 4.738500e+001 0.000000e+000
      vertex   -2.800000e+002 4.738500e+001 2.200000e+001
    endloop
  endfacet
  facet normal -1.000000e+000 -0.000000e+000 -0.000000e+000
    outer loop
      vertex   -2.800000e+002 4.738500e+001 2.200000e+001
      vertex   -2.800000e+002 4.738500e+001 0.000000e+000
      vertex   -2.800000e+002 1.000000e+000 0.000000e+000
    endloop
  endfacet
  facet normal -1.000000e+000 0.000000e+000 -0.000000e+000
    outer loop
      vertex   -2.800000e+002 1.000000e+000 2.200000e+001
      vertex   -2.800000e+002 4.738500e+001 2.200000e+001
      vertex   -2.800000e+002 1.000000e+000 0.000000e+000
    endloop
  endfacet
  facet normal 0.000000e+000 1.000000e+000 1.348187e-007
    outer loop
      vertex   -2.244241e+002 9.377000e+001 1.075211e+001
      vertex   -2.437110e+002 9.377000e+001 0.000000e+000
      vertex   -2.366741e+002 9.377000e+001 1.075211e+001
    endloop
  endfacet
  facet normal 0.000000e+000 1.000000e+000 1.348187e-007
    outer loop
      vertex   -2.244241e+002 9.377000e+001 1.075211e+001
      vertex   -2.074220e+002 9.377000e+001 0.000000e+000
      vertex   -2.437110e+002 9.377000e+001 0.000000e+000
    endloop
  endfacet
  facet normal -8.525925e-008 1.000000e+000 0.000000e+000
    outer loop
      vertex   -2.244241e+002 9.377000e+001 1.075211e+001
      vertex   -2.074220e+002 9.377000e+001 2.200000e+001
      vertex   -2.074220e+002 9.377000e+001 0.000000e+000
    endloop
  endfacet
  facet normal -8.525925e-008 1.000000e+000 0.000000e+000
    outer loop
      vertex   -2.244241e+002 9.377000e+001 1.075211e+001
      vertex   -2.244241e+002 9.377000e+001 1.700211e+001
      vertex   -2.074220e+002 9.377000e+001 2.200000e+001
    endloop
  endfacet
  facet normal 0.000000e+000 1.000000e+000 -2.900391e-007
    outer loop
      vertex   -2.074220e+002 9.377000e+001 2.200000e+001
      vertex   -2.244241e+002 9.377000e+001 1.700211e+001
      vertex   -2.437110e+002 9.377000e+001 2.200000e+001
    endloop
  endfacet
  facet normal 0.000000e+000 1.000000e+000 -2.900391e-007
    outer loop
      vertex   -2.437110e+002 9.377000e+001 2.200000e+001
      vertex   -2.244241e+002 9.377000e+001 1.700211e+001
      vertex   -2.366741e+002 9.377000e+001 1.700211e+001
    endloop
  endfacet
  facet normal 2.059972e-007 1.000000e+000 0.000000e+000
    outer loop
      vertex   -2.366741e+002 9.377000e+001 1.075211e+001
      vertex   -2.437110e+002 9.377000e+001 2.200000e+001
      vertex   -2.366741e+002 9.377000e+001 1.700211e+001
    endloop
  endfacet
  facet normal 2.059972e-007 1.000000e+000 -0.000000e+000
    outer loop
      vertex   -2.366741e+002 9.377000e+001 1.075211e+001
      vertex   -2.437110e+002 9.377000e+001 0.000000e+000
      vertex   -2.437110e+002 9.377000e+001 2.200000e+001
    endloop
  endfacet
  facet normal 0.000000e+000 1.000000e+000 0.000000e+000
    outer loop
      vertex   -2.437110e+002 9.377000e+001 2.200000e+001
      vertex   -2.437110e+002 9.377000e+001 0.000000e+000
      vertex   -2.800000e+002 9.377000e+001 0.000000e+000
    endloop
  endfacet
  facet normal -0.000000e+000 1.000000e+000 0.000000e+000
    outer loop
      vertex   -2.800000e+002 9.377000e+001 2.200000e+001
      vertex   -2.437110e+002 9.377000e+001 2.200000e+001
      vertex   -2.800000e+002 9.377000e+001 0.000000e+000
    endloop
  endfacet
  facet normal 0.000000e+000 0.000000e+000 1.000000e+000
    outer loop
      vertex   -2.437110e+002 9.277000e+001 2.200000e+001
      vertex   -2.437110e+002 9.377000e+001 2.200000e+001
      vertex   -2.790000e+002 9.277000e+001 2.200000e+001
    endloop
  endfacet
  facet normal 0.000000e+000 -0.000000e+000 1.000000e+000
    outer loop
      vertex   -2.437110e+002 9.277000e+001 2.200000e+001
      vertex   -2.084220e+002 9.277000e+001 2.200000e+001
      vertex   -2.437110e+002 9.377000e+001 2.200000e+001
    endloop
  endfacet
  facet normal -0.000000e+000 0.000000e+000 1.000000e+000
    outer loop
      vertex   -2.437110e+002 9.377000e+001 2.200000e+001
      vertex   -2.084220e+002 9.277000e+001 2.200000e+001
      vertex   -2.074220e+002 9.377000e+001 2.200000e+001
    endloop
  endfacet
  facet normal 0.000000e+000 0.000000e+000 1.000000e+000
    outer loop
      vertex   -2.074220e+002 9.377000e+001 2.200000e+001
      vertex   -2.084220e+002 9.277000e+001 2.200000e+001
      vertex   -2.074220e+002 4.738500e+001 2.200000e+001
    endloop
  endfacet
  facet normal 0.000000e+000 0.000000e+000 1.000000e+000
    outer loop
      vertex   -2.074220e+002 4.738500e+001 2.200000e+001
      vertex   -2.084220e+002 9.277000e+001 2.200000e+001
      vertex   -2.084220e+002 4.738500e+001 2.200000e+001
    endloop
  endfacet
  facet normal 0.000000e+000 -0.000000e+000 1.000000e+000
    outer loop
      vertex   -2.084220e+002 2.000000e+000 2.200000e+001
      vertex   -2.074220e+002 4.738500e+001 2.200000e+001
      vertex   -2.084220e+002 4.738500e+001 2.200000e+001
    endloop
  endfacet
  facet normal -0.000000e+000 0.000000e+000 1.000000e+000
    outer loop
      vertex   -2.084220e+002 2.000000e+000 2.200000e+001
      vertex   -2.074220e+002 1.000000e+000 2.200000e+001
      vertex   -2.074220e+002 4.738500e+001 2.200000e+001
    endloop
  endfacet
  facet normal -0.000000e+000 0.000000e+000 1.000000e+000
    outer loop
      vertex   -2.084220e+002 2.000000e+000 2.200000e+001
      vertex   -2.437110e+002 1.000000e+000 2.200000e+001
      vertex   -2.074220e+002 1.000000e+000 2.200000e+001
    endloop
  endfacet
  facet normal 0.000000e+000 0.000000e+000 1.000000e+000
    outer loop
      vertex   -2.084220e+002 2.000000e+000 2.200000e+001
      vertex   -2.437110e+002 2.000000e+000 2.200000e+001
      vertex   -2.437110e+002 1.000000e+000 2.200000e+001
    endloop
  endfacet
  facet normal 0.000000e+000 0.000000e+000 1.000000e+000
    outer loop
      vertex   -2.437110e+002 1.000000e+000 2.200000e+001
      vertex   -2.437110e+002 2.000000e+000 2.200000e+001
      vertex   -2.790000e+002 2.000000e+000 2.200000e+001
    endloop
  endfacet
  facet normal 0.000000e+000 -0.000000e+000 1.000000e+000
    outer loop
      vertex   -2.800000e+002 1.000000e+000 2.200000e+001
      vertex   -2.790000e+002 2.000000e+000 2.200000e+001
      vertex   -2.800000e+002 4.738500e+001 2.200000e+001
    endloop
  endfacet
  facet normal 0.000000e+000 -0.000000e+000 1.000000e+000
    outer loop
      vertex   -2.800000e+002 1.000000e+000 2.200000e+001
      vertex   -2.437110e+002 1.000000e+000 2.200000e+001
      vertex   -2.790000e+002 2.000000e+000 2.200000e+001
    endloop
  endfacet
  facet normal 0.000000e+000 -0.000000e+000 1.000000e+000
    outer loop
      vertex   -2.790000e+002 2.000000e+000 2.200000e+001
      vertex   -2.790000e+002 4.738500e+001 2.200000e+001
      vertex   -2.800000e+002 4.738500e+001 2.200000e+001
    endloop
  endfacet
  facet normal -0.000000e+000 0.000000e+000 1.000000e+000
    outer loop
      vertex   -2.800000e+002 4.738500e+001 2.200000e+001
      vertex   -2.790000e+002 4.738500e+001 2.200000e+001
      vertex   -2.790000e+002 9.277000e+001 2.200000e+001
    endloop
  endfacet
  facet normal -0.000000e+000 0.000000e+000 1.000000e+000
    outer loop
      vertex   -2.800000e+002 9.377000e+001 2.200000e+001
      vertex   -2.790000e+002 9.277000e+001 2.200000e+001
      vertex   -2.437110e+002 9.377000e+001 2.200000e+001
    endloop
  endfacet
  facet normal -0.000000e+000 0.000000e+000 1.000000e+000
    outer loop
      vertex   -2.800000e+002 9.377000e+001 2.200000e+001
      vertex   -2.800000e+002 4.738500e+001 2.200000e+001
      vertex   -2.790000e+002 9.277000e+001 2.200000e+001
    endloop
  endfacet
  facet normal 0.000000e+000 -1.000000e+000 0.000000e+000
    outer loop
      vertex   -2.790000e+002 2.000000e+000 2.200000e+001
      vertex   -2.437110e+002 2.000000e+000 2.200000e+001
      vertex   -2.790000e+002 2.000000e+000 2.600000e+001
    endloop
  endfacet
  facet normal 0.000000e+000 -1.000000e+000 0.000000e+000
    outer loop
      vertex   -2.790000e+002 2.000000e+000 2.600000e+001
      vertex   -2.437110e+002 2.000000e+000 2.200000e+001
      vertex   -2.437110e+002 2.000000e+000 2.600000e+001
    endloop
  endfacet
  facet normal 0.000000e+000 -1.000000e+000 0.000000e+000
    outer loop
      vertex   -2.437110e+002 2.000000e+000 2.600000e+001
      vertex   -2.437110e+002 2.000000e+000 2.200000e+001
      vertex   -2.084220e+002 2.000000e+000 2.200000e+001
    endloop
  endfacet
  facet normal -0.000000e+000 -1.000000e+000 -0.000000e+000
    outer loop
      vertex   -2.084220e+002 2.000000e+000 2.600000e+001
      vertex   -2.437110e+002 2.000000e+000 2.600000e+001
      vertex   -2.084220e+002 2.000000e+000 2.200000e+001
    endloop
  endfacet
  facet normal 1.000000e+000 0.000000e+000 -0.000000e+000
    outer loop
      vertex   -2.084220e+002 2.000000e+000 2.200000e+001
      vertex   -2.084220e+002 4.738500e+001 2.200000e+001
      vertex   -2.084220e+002 2.000000e+000 2.600000e+001
    endloop
  endfacet
  facet normal 1.000000e+000 -0.000000e+000 -0.000000e+000
    outer loop
      vertex   -2.084220e+002 2.000000e+000 2.600000e+001
      vertex   -2.084220e+002 4.738500e+001 2.200000e+001
      vertex   -2.084220e+002 4.738500e+001 2.600000e+001
    endloop
  endfacet
  facet normal 1.000000e+000 -0.000000e+000 0.000000e+000
    outer loop
      vertex   -2.084220e+002 4.738500e+001 2.600000e+001
      vertex   -2.084220e+002 4.738500e+001 2.200000e+001
      vertex   -2.084220e+002 9.277000e+001 2.200000e+001
    endloop
  endfacet
  facet normal 1.000000e+000 0.000000e+000 0.000000e+000
    outer loop
      vertex   -2.084220e+002 9.277000e+001 2.600000e+001
      vertex   -2.084220e+002 4.738500e+001 2.600000e+001
      vertex   -2.084220e+002 9.277000e+001 2.200000e+001
    endloop
  endfacet
  facet normal -9.729733e-001 -2.309175e-001 0.000000e+000
    outer loop
      vertex   -2.094220e+002 5.210628e+000 0.000000e+000
      vertex   -2.093945e+002 5.094640e+000 0.000000e+000
      vertex   -2.094220e+002 5.210628e+000 2.300000e+001
    endloop
  endfacet
  facet normal -9.729733e-001 -2.309175e-001 0.000000e+000
    outer loop
      vertex   -2.094220e+002 5.210628e+000 2.300000e+001
      vertex   -2.093945e+002 5.094640e+000 0.000000e+000
      vertex   -2.093945e+002 5.094640e+000 2.600000e+001
    endloop
  endfacet
  facet normal -9.729733e-001 -2.309175e-001 1.061914e-014
    outer loop
      vertex   -2.101242e+002 8.169236e+000 2.600000e+001
      vertex   -2.094220e+002 5.210628e+000 2.300000e+001
      vertex   -2.093945e+002 5.094640e+000 2.600000e+001
    endloop
  endfacet
  facet normal -9.729733e-001 -2.309175e-001 -0.000000e+000
    outer loop
      vertex   -2.101242e+002 8.169236e+000 2.600000e+001
      vertex   -2.101242e+002 8.169236e+000 2.300000e+001
      vertex   -2.094220e+002 5.210628e+000 2.300000e+001
    endloop
  endfacet
  facet normal -9.336037e-001 3.583073e-001 0.000000e+000
    outer loop
      vertex   -2.094220e+002 8.894909e+001 0.000000e+000
      vertex   -2.094220e+002 8.894909e+001 2.300000e+001
      vertex   -2.093009e+002 8.926454e+001 0.000000e+000
    endloop
  endfacet
  facet normal -9.336037e-001 3.583073e-001 0.000000e+000
    outer loop
      vertex   -2.093009e+002 8.926454e+001 0.000000e+000
      vertex   -2.094220e+002 8.894909e+001 2.300000e+001
      vertex   -2.093009e+002 8.926454e+001 2.600000e+001
    endloop
  endfacet
  facet normal -9.336037e-001 3.583073e-001 1.399490e-015
    outer loop
      vertex   -2.093009e+002 8.926454e+001 2.600000e+001
      vertex   -2.094220e+002 8.894909e+001 2.300000e+001
      vertex   -2.104332e+002 8.631435e+001 2.600000e+001
    endloop
  endfacet
  facet normal -9.336037e-001 3.583073e-001 0.000000e+000
    outer loop
      vertex   -2.104332e+002 8.631435e+001 2.600000e+001
      vertex   -2.094220e+002 8.894909e+001 2.300000e+001
      vertex   -2.104332e+002 8.631435e+001 2.300000e+001
    endloop
  endfacet
  facet normal -7.771051e-001 -6.293709e-001 0.000000e+000
    outer loop
      vertex   -2.094220e+002 8.941402e+001 0.000000e+000
      vertex   -2.093009e+002 8.926454e+001 0.000000e+000
      vertex   -2.094220e+002 8.941402e+001 2.300000e+001
    endloop
  endfacet
  facet normal -7.771051e-001 -6.293709e-001 0.000000e+000
    outer loop
      vertex   -2.094220e+002 8.941402e+001 2.300000e+001
      vertex   -2.093009e+002 8.926454e+001 0.000000e+000
      vertex   -2.093009e+002 8.926454e+001 2.600000e+001
    endloop
  endfacet
  facet normal -7.771051e-001 -6.293709e-001 -7.319508e-016
    outer loop
      vertex   -2.112897e+002 9.172019e+001 2.600000e+001
      vertex   -2.094220e+002 8.941402e+001 2.300000e+001
      vertex   -2.093009e+002 8.926454e+001 2.600000e+001
    endloop
  endfacet
  facet normal -7.771051e-001 -6.293709e-001 -0.000000e+000
    outer loop
      vertex   -2.112897e+002 9.172019e+001 2.600000e+001
      vertex   -2.112897e+002 9.172019e+001 2.300000e+001
      vertex   -2.094220e+002 8.941402e+001 2.300000e+001
    endloop
  endfacet
  facet normal 7.683778e-001 -6.399965e-001 0.000000e+000
    outer loop
      vertex   -2.780000e+002 8.944423e+001 0.000000e+000
      vertex   -2.780000e+002 8.944423e+001 2.300000e+001
      vertex   -2.781140e+002 8.930740e+001 0.000000e+000
    endloop
  endfacet
  facet normal 7.683778e-001 -6.399965e-001 0.000000e+000
    outer loop
      vertex   -2.781140e+002 8.930740e+001 0.000000e+000
      vertex   -2.780000e+002 8.944423e+001 2.300000e+001
      vertex   -2.781140e+002 8.930740e+001 2.600000e+001
    endloop
  endfacet
  facet normal 7.683778e-001 -6.399965e-001 5.316891e-015
    outer loop
      vertex   -2.781140e+002 8.930740e+001 2.600000e+001
      vertex   -2.780000e+002 8.944423e+001 2.300000e+001
      vertex   -2.760916e+002 9.173548e+001 2.600000e+001
    endloop
  endfacet
  facet normal 7.683778e-001 -6.399965e-001 0.000000e+000
    outer loop
      vertex   -2.760916e+002 9.173548e+001 2.600000e+001
      vertex   -2.780000e+002 8.944423e+001 2.300000e+001
      vertex   -2.760916e+002 9.173548e+001 2.300000e+001
    endloop
  endfacet
  facet normal 9.384422e-001 3.454364e-001 0.000000e+000
    outer loop
      vertex   -2.780000e+002 8.899779e+001 0.000000e+000
      vertex   -2.781140e+002 8.930740e+001 0.000000e+000
      vertex   -2.780000e+002 8.899779e+001 2.300000e+001
    endloop
  endfacet
  facet normal 9.384422e-001 3.454364e-001 -0.000000e+000
    outer loop
      vertex   -2.780000e+002 8.899779e+001 2.300000e+001
      vertex   -2.781140e+002 8.930740e+001 0.000000e+000
      vertex   -2.781140e+002 8.930740e+001 2.600000e+001
    endloop
  endfacet
  facet normal 9.384422e-001 3.454364e-001 3.835422e-015
    outer loop
      vertex   -2.770224e+002 8.634193e+001 2.600000e+001
      vertex   -2.780000e+002 8.899779e+001 2.300000e+001
      vertex   -2.781140e+002 8.930740e+001 2.600000e+001
    endloop
  endfacet
  facet normal 9.384422e-001 3.454364e-001 0.000000e+000
    outer loop
      vertex   -2.770224e+002 8.634193e+001 2.600000e+001
      vertex   -2.770224e+002 8.634193e+001 2.300000e+001
      vertex   -2.780000e+002 8.899779e+001 2.300000e+001
    endloop
  endfacet
  facet normal 9.673522e-001 -2.534360e-001 0.000000e+000
    outer loop
      vertex   -2.780000e+002 5.347306e+000 0.000000e+000
      vertex   -2.780000e+002 5.347306e+000 2.300000e+001
      vertex   -2.780477e+002 5.165147e+000 0.000000e+000
    endloop
  endfacet
  facet normal 9.673522e-001 -2.534360e-001 0.000000e+000
    outer loop
      vertex   -2.780477e+002 5.165147e+000 0.000000e+000
      vertex   -2.780000e+002 5.347306e+000 2.300000e+001
      vertex   -2.780477e+002 5.165147e+000 2.600000e+001
    endloop
  endfacet
  facet normal 9.673522e-001 -2.534360e-001 -3.516292e-015
    outer loop
      vertex   -2.780477e+002 5.165147e+000 2.600000e+001
      vertex   -2.780000e+002 5.347306e+000 2.300000e+001
      vertex   -2.772469e+002 8.221980e+000 2.600000e+001
    endloop
  endfacet
  facet normal 9.673522e-001 -2.534360e-001 0.000000e+000
    outer loop
      vertex   -2.772469e+002 8.221980e+000 2.600000e+001
      vertex   -2.780000e+002 5.347306e+000 2.300000e+001
      vertex   -2.772469e+002 8.221980e+000 2.300000e+001
    endloop
  endfacet
  facet normal 7.031581e-001 7.110335e-001 0.000000e+000
    outer loop
      vertex   -2.780000e+002 5.117952e+000 0.000000e+000
      vertex   -2.780477e+002 5.165147e+000 0.000000e+000
      vertex   -2.780000e+002 5.117952e+000 2.300000e+001
    endloop
  endfacet
  facet normal 7.031581e-001 7.110335e-001 -0.000000e+000
    outer loop
      vertex   -2.780000e+002 5.117952e+000 2.300000e+001
      vertex   -2.780477e+002 5.165147e+000 0.000000e+000
      vertex   -2.780477e+002 5.165147e+000 2.600000e+001
    endloop
  endfacet
  facet normal 7.031581e-001 7.110335e-001 8.338384e-015
    outer loop
      vertex   -2.758583e+002 3.000000e+000 2.300000e+001
      vertex   -2.780477e+002 5.165147e+000 2.600000e+001
      vertex   -2.758009e+002 2.943167e+000 2.600000e+001
    endloop
  endfacet
  facet normal 7.031581e-001 7.110335e-001 0.000000e+000
    outer loop
      vertex   -2.758009e+002 2.943167e+000 0.000000e+000
      vertex   -2.758583e+002 3.000000e+000 2.300000e+001
      vertex   -2.758009e+002 2.943167e+000 2.600000e+001
    endloop
  endfacet
  facet normal 7.031581e-001 7.110335e-001 -0.000000e+000
    outer loop
      vertex   -2.758009e+002 2.943167e+000 0.000000e+000
      vertex   -2.758583e+002 3.000000e+000 0.000000e+000
      vertex   -2.758583e+002 3.000000e+000 2.300000e+001
    endloop
  endfacet
  facet normal 7.031581e-001 7.110335e-001 2.856596e-015
    outer loop
      vertex   -2.780000e+002 5.117952e+000 2.300000e+001
      vertex   -2.780477e+002 5.165147e+000 2.600000e+001
      vertex   -2.758583e+002 3.000000e+000 2.300000e+001
    endloop
  endfacet
  facet normal -2.641940e-001 9.644695e-001 0.000000e+000
    outer loop
      vertex   -2.755934e+002 3.000000e+000 0.000000e+000
      vertex   -2.758009e+002 2.943167e+000 0.000000e+000
      vertex   -2.755934e+002 3.000000e+000 2.300000e+001
    endloop
  endfacet
  facet normal -2.641940e-001 9.644695e-001 0.000000e+000
    outer loop
      vertex   -2.755934e+002 3.000000e+000 2.300000e+001
      vertex   -2.758009e+002 2.943167e+000 0.000000e+000
      vertex   -2.758009e+002 2.943167e+000 2.600000e+001
    endloop
  endfacet
  facet normal -2.641940e-001 9.644695e-001 -5.975647e-015
    outer loop
      vertex   -2.727531e+002 3.778020e+000 2.600000e+001
      vertex   -2.755934e+002 3.000000e+000 2.300000e+001
      vertex   -2.758009e+002 2.943167e+000 2.600000e+001
    endloop
  endfacet
  facet normal -2.641940e-001 9.644695e-001 0.000000e+000
    outer loop
      vertex   -2.727531e+002 3.778020e+000 2.600000e+001
      vertex   -2.727531e+002 3.778020e+000 2.300000e+001
      vertex   -2.755934e+002 3.000000e+000 2.300000e+001
    endloop
  endfacet
  facet normal -6.864671e-001 7.271609e-001 0.000000e+000
    outer loop
      vertex   -2.116133e+002 3.000000e+000 0.000000e+000
      vertex   -2.116923e+002 2.925404e+000 0.000000e+000
      vertex   -2.116133e+002 3.000000e+000 2.300000e+001
    endloop
  endfacet
  facet normal -6.864671e-001 7.271609e-001 0.000000e+000
    outer loop
      vertex   -2.116133e+002 3.000000e+000 2.300000e+001
      vertex   -2.116923e+002 2.925404e+000 0.000000e+000
      vertex   -2.116923e+002 2.925404e+000 2.600000e+001
    endloop
  endfacet
  facet normal -6.864671e-001 7.271609e-001 1.024731e-016
    outer loop
      vertex   -2.093945e+002 5.094640e+000 2.600000e+001
      vertex   -2.116133e+002 3.000000e+000 2.300000e+001
      vertex   -2.116923e+002 2.925404e+000 2.600000e+001
    endloop
  endfacet
  facet normal -6.864671e-001 7.271609e-001 9.566619e-015
    outer loop
      vertex   -2.093945e+002 5.094640e+000 2.600000e+001
      vertex   -2.094220e+002 5.068653e+000 2.300000e+001
      vertex   -2.116133e+002 3.000000e+000 2.300000e+001
    endloop
  endfacet
  facet normal -6.864671e-001 7.271609e-001 0.000000e+000
    outer loop
      vertex   -2.093945e+002 5.094640e+000 2.600000e+001
      vertex   -2.093945e+002 5.094640e+000 0.000000e+000
      vertex   -2.094220e+002 5.068653e+000 2.300000e+001
    endloop
  endfacet
  facet normal -6.864671e-001 7.271609e-001 0.000000e+000
    outer loop
      vertex   -2.094220e+002 5.068653e+000 2.300000e+001
      vertex   -2.093945e+002 5.094640e+000 0.000000e+000
      vertex   -2.094220e+002 5.068653e+000 0.000000e+000
    endloop
  endfacet
  facet normal 0.000000e+000 1.000000e+000 -0.000000e+000
    outer loop
      vertex   -2.084220e+002 9.277000e+001 2.200000e+001
      vertex   -2.437110e+002 9.277000e+001 2.200000e+001
      vertex   -2.084220e+002 9.277000e+001 2.600000e+001
    endloop
  endfacet
  facet normal 0.000000e+000 1.000000e+000 0.000000e+000
    outer loop
      vertex   -2.084220e+002 9.277000e+001 2.600000e+001
      vertex   -2.437110e+002 9.277000e+001 2.200000e+001
      vertex   -2.437110e+002 9.277000e+001 2.600000e+001
    endloop
  endfacet
  facet normal -8.053985e-016 1.000000e+000 -5.722701e-030
    outer loop
      vertex   -2.437110e+002 9.277000e+001 2.600000e+001
      vertex   -2.437110e+002 9.277000e+001 2.200000e+001
      vertex   -2.790000e+002 9.277000e+001 2.200000e+001
    endloop
  endfacet
  facet normal -8.053985e-016 1.000000e+000 0.000000e+000
    outer loop
      vertex   -2.790000e+002 9.277000e+001 2.600000e+001
      vertex   -2.437110e+002 9.277000e+001 2.600000e+001
      vertex   -2.790000e+002 9.277000e+001 2.200000e+001
    endloop
  endfacet
  facet normal -1.000000e+000 0.000000e+000 0.000000e+000
    outer loop
      vertex   -2.790000e+002 9.277000e+001 2.200000e+001
      vertex   -2.790000e+002 4.738500e+001 2.200000e+001
      vertex   -2.790000e+002 9.277000e+001 2.600000e+001
    endloop
  endfacet
  facet normal -1.000000e+000 -0.000000e+000 0.000000e+000
    outer loop
      vertex   -2.790000e+002 9.277000e+001 2.600000e+001
      vertex   -2.790000e+002 4.738500e+001 2.200000e+001
      vertex   -2.790000e+002 4.738500e+001 2.600000e+001
    endloop
  endfacet
  facet normal -1.000000e+000 -0.000000e+000 -0.000000e+000
    outer loop
      vertex   -2.790000e+002 4.738500e+001 2.600000e+001
      vertex   -2.790000e+002 4.738500e+001 2.200000e+001
      vertex   -2.790000e+002 2.000000e+000 2.200000e+001
    endloop
  endfacet
  facet normal -1.000000e+000 0.000000e+000 -0.000000e+000
    outer loop
      vertex   -2.790000e+002 2.000000e+000 2.600000e+001
      vertex   -2.790000e+002 4.738500e+001 2.600000e+001
      vertex   -2.790000e+002 2.000000e+000 2.200000e+001
    endloop
  endfacet
  facet normal 0.000000e+000 0.000000e+000 1.000000e+000
    outer loop
      vertex   -2.719523e+002 6.834853e+000 2.600000e+001
      vertex   -2.727531e+002 3.778020e+000 2.600000e+001
      vertex   -2.700000e+002 3.000000e+000 2.600000e+001
    endloop
  endfacet
  facet normal 0.000000e+000 0.000000e+000 1.000000e+000
    outer loop
      vertex   -2.700000e+002 1.100000e+001 2.600000e+001
      vertex   -2.719523e+002 6.834853e+000 2.600000e+001
      vertex   -2.700000e+002 3.000000e+000 2.600000e+001
    endloop
  endfacet
  facet normal 0.000000e+000 0.000000e+000 1.000000e+000
    outer loop
      vertex   -2.700000e+002 1.100000e+001 2.600000e+001
      vertex   -2.741991e+002 9.056833e+000 2.600000e+001
      vertex   -2.719523e+002 6.834853e+000 2.600000e+001
    endloop
  endfacet
  facet normal 0.000000e+000 0.000000e+000 1.000000e+000
    outer loop
      vertex   -2.700000e+002 1.100000e+001 2.600000e+001
      vertex   -2.780000e+002 1.100000e+001 2.600000e+001
      vertex   -2.741991e+002 9.056833e+000 2.600000e+001
    endloop
  endfacet
  facet normal 0.000000e+000 0.000000e+000 1.000000e+000
    outer loop
      vertex   -2.741991e+002 9.056833e+000 2.600000e+001
      vertex   -2.780000e+002 1.100000e+001 2.600000e+001
      vertex   -2.772469e+002 8.221980e+000 2.600000e+001
    endloop
  endfacet
  facet normal 0.000000e+000 0.000000e+000 1.000000e+000
    outer loop
      vertex   -2.772469e+002 8.221980e+000 2.600000e+001
      vertex   -2.780000e+002 1.100000e+001 2.600000e+001
      vertex   -2.780477e+002 5.165147e+000 2.600000e+001
    endloop
  endfacet
  facet normal 0.000000e+000 -0.000000e+000 1.000000e+000
    outer loop
      vertex   -2.780477e+002 5.165147e+000 2.600000e+001
      vertex   -2.780000e+002 1.100000e+001 2.600000e+001
      vertex   -2.790000e+002 2.000000e+000 2.600000e+001
    endloop
  endfacet
  facet normal -0.000000e+000 0.000000e+000 1.000000e+000
    outer loop
      vertex   -2.758009e+002 2.943167e+000 2.600000e+001
      vertex   -2.790000e+002 2.000000e+000 2.600000e+001
      vertex   -2.700000e+002 3.000000e+000 2.600000e+001
    endloop
  endfacet
  facet normal -0.000000e+000 0.000000e+000 1.000000e+000
    outer loop
      vertex   -2.727531e+002 3.778020e+000 2.600000e+001
      vertex   -2.758009e+002 2.943167e+000 2.600000e+001
      vertex   -2.700000e+002 3.000000e+000 2.600000e+001
    endloop
  endfacet
  facet normal 0.000000e+000 0.000000e+000 1.000000e+000
    outer loop
      vertex   -2.758009e+002 2.943167e+000 2.600000e+001
      vertex   -2.780477e+002 5.165147e+000 2.600000e+001
      vertex   -2.790000e+002 2.000000e+000 2.600000e+001
    endloop
  endfacet
  facet normal 0.000000e+000 -0.000000e+000 1.000000e+000
    outer loop
      vertex   -2.790000e+002 2.000000e+000 2.600000e+001
      vertex   -2.780000e+002 1.100000e+001 2.600000e+001
      vertex   -2.790000e+002 4.738500e+001 2.600000e+001
    endloop
  endfacet
  facet normal -0.000000e+000 0.000000e+000 1.000000e+000
    outer loop
      vertex   -2.790000e+002 4.738500e+001 2.600000e+001
      vertex   -2.780000e+002 1.100000e+001 2.600000e+001
      vertex   -2.780000e+002 4.738500e+001 2.600000e+001
    endloop
  endfacet
  facet normal -0.000000e+000 0.000000e+000 1.000000e+000
    outer loop
      vertex   -2.780000e+002 8.377000e+001 2.600000e+001
      vertex   -2.790000e+002 4.738500e+001 2.600000e+001
      vertex   -2.780000e+002 4.738500e+001 2.600000e+001
    endloop
  endfacet
  facet normal 0.000000e+000 0.000000e+000 1.000000e+000
    outer loop
      vertex   -2.780000e+002 8.377000e+001 2.600000e+001
      vertex   -2.790000e+002 9.277000e+001 2.600000e+001
      vertex   -2.790000e+002 4.738500e+001 2.600000e+001
    endloop
  endfacet
  facet normal 0.000000e+000 0.000000e+000 1.000000e+000
    outer loop
      vertex   -2.780000e+002 8.377000e+001 2.600000e+001
      vertex   -2.781140e+002 8.930740e+001 2.600000e+001
      vertex   -2.790000e+002 9.277000e+001 2.600000e+001
    endloop
  endfacet
  facet normal 0.000000e+000 -0.000000e+000 1.000000e+000
    outer loop
      vertex   -2.780000e+002 8.377000e+001 2.600000e+001
      vertex   -2.770224e+002 8.634193e+001 2.600000e+001
      vertex   -2.781140e+002 8.930740e+001 2.600000e+001
    endloop
  endfacet
  facet normal 0.000000e+000 -0.000000e+000 1.000000e+000
    outer loop
      vertex   -2.780000e+002 8.377000e+001 2.600000e+001
      vertex   -2.739084e+002 8.580452e+001 2.600000e+001
      vertex   -2.770224e+002 8.634193e+001 2.600000e+001
    endloop
  endfacet
  facet normal 0.000000e+000 -0.000000e+000 1.000000e+000
    outer loop
      vertex   -2.780000e+002 8.377000e+001 2.600000e+001
      vertex   -2.700000e+002 8.377000e+001 2.600000e+001
      vertex   -2.739084e+002 8.580452e+001 2.600000e+001
    endloop
  endfacet
  facet normal -0.000000e+000 -0.000000e+000 1.000000e+000
    outer loop
      vertex   -2.739084e+002 8.580452e+001 2.600000e+001
      vertex   -2.700000e+002 8.377000e+001 2.600000e+001
      vertex   -2.718860e+002 8.823260e+001 2.600000e+001
    endloop
  endfacet
  facet normal -0.000000e+000 0.000000e+000 1.000000e+000
    outer loop
      vertex   -2.718860e+002 8.823260e+001 2.600000e+001
      vertex   -2.700000e+002 8.377000e+001 2.600000e+001
      vertex   -2.700000e+002 9.177000e+001 2.600000e+001
    endloop
  endfacet
  facet normal 0.000000e+000 -0.000000e+000 1.000000e+000
    outer loop
      vertex   -2.729776e+002 9.119807e+001 2.600000e+001
      vertex   -2.700000e+002 9.177000e+001 2.600000e+001
      vertex   -2.760916e+002 9.173548e+001 2.600000e+001
    endloop
  endfacet
  facet normal -0.000000e+000 0.000000e+000 1.000000e+000
    outer loop
      vertex   -2.729776e+002 9.119807e+001 2.600000e+001
      vertex   -2.718860e+002 8.823260e+001 2.600000e+001
      vertex   -2.700000e+002 9.177000e+001 2.600000e+001
    endloop
  endfacet
  facet normal 0.000000e+000 0.000000e+000 1.000000e+000
    outer loop
      vertex   -2.174220e+002 9.177000e+001 2.600000e+001
      vertex   -2.437110e+002 9.277000e+001 2.600000e+001
      vertex   -2.700000e+002 9.177000e+001 2.600000e+001
    endloop
  endfacet
  facet normal 0.000000e+000 -0.000000e+000 1.000000e+000
    outer loop
      vertex   -2.174220e+002 9.177000e+001 2.600000e+001
      vertex   -2.084220e+002 9.277000e+001 2.600000e+001
      vertex   -2.437110e+002 9.277000e+001 2.600000e+001
    endloop
  endfacet
  facet normal -0.000000e+000 0.000000e+000 1.000000e+000
    outer loop
      vertex   -2.174220e+002 9.177000e+001 2.600000e+001
      vertex   -2.112897e+002 9.172019e+001 2.600000e+001
      vertex   -2.084220e+002 9.277000e+001 2.600000e+001
    endloop
  endfacet
  facet normal -0.000000e+000 0.000000e+000 1.000000e+000
    outer loop
      vertex   -2.174220e+002 9.177000e+001 2.600000e+001
      vertex   -2.144108e+002 9.122565e+001 2.600000e+001
      vertex   -2.112897e+002 9.172019e+001 2.600000e+001
    endloop
  endfacet
  facet normal -0.000000e+000 0.000000e+000 1.000000e+000
    outer loop
      vertex   -2.174220e+002 9.177000e+001 2.600000e+001
      vertex   -2.155431e+002 8.827546e+001 2.600000e+001
      vertex   -2.144108e+002 9.122565e+001 2.600000e+001
    endloop
  endfacet
  facet normal -0.000000e+000 0.000000e+000 1.000000e+000
    outer loop
      vertex   -2.174220e+002 9.177000e+001 2.600000e+001
      vertex   -2.174220e+002 8.377000e+001 2.600000e+001
      vertex   -2.155431e+002 8.827546e+001 2.600000e+001
    endloop
  endfacet
  facet normal -0.000000e+000 0.000000e+000 1.000000e+000
    outer loop
      vertex   -2.155431e+002 8.827546e+001 2.600000e+001
      vertex   -2.174220e+002 8.377000e+001 2.600000e+001
      vertex   -2.135543e+002 8.581981e+001 2.600000e+001
    endloop
  endfacet
  facet normal -0.000000e+000 0.000000e+000 1.000000e+000
    outer loop
      vertex   -2.135543e+002 8.581981e+001 2.600000e+001
      vertex   -2.174220e+002 8.377000e+001 2.600000e+001
      vertex   -2.094220e+002 8.377000e+001 2.600000e+001
    endloop
  endfacet
  facet normal -0.000000e+000 0.000000e+000 1.000000e+000
    outer loop
      vertex   -2.104332e+002 8.631435e+001 2.600000e+001
      vertex   -2.094220e+002 8.377000e+001 2.600000e+001
      vertex   -2.093009e+002 8.926454e+001 2.600000e+001
    endloop
  endfacet
  facet normal 0.000000e+000 0.000000e+000 1.000000e+000
    outer loop
      vertex   -2.104332e+002 8.631435e+001 2.600000e+001
      vertex   -2.135543e+002 8.581981e+001 2.600000e+001
      vertex   -2.094220e+002 8.377000e+001 2.600000e+001
    endloop
  endfacet
  facet normal -0.000000e+000 -0.000000e+000 1.000000e+000
    outer loop
      vertex   -2.094220e+002 4.738500e+001 2.600000e+001
      vertex   -2.084220e+002 4.738500e+001 2.600000e+001
      vertex   -2.094220e+002 8.377000e+001 2.600000e+001
    endloop
  endfacet
  facet normal -0.000000e+000 0.000000e+000 1.000000e+000
    outer loop
      vertex   -2.094220e+002 4.738500e+001 2.600000e+001
      vertex   -2.094220e+002 1.100000e+001 2.600000e+001
      vertex   -2.084220e+002 4.738500e+001 2.600000e+001
    endloop
  endfacet
  facet normal 0.000000e+000 0.000000e+000 1.000000e+000
    outer loop
      vertex   -2.084220e+002 4.738500e+001 2.600000e+001
      vertex   -2.094220e+002 1.100000e+001 2.600000e+001
      vertex   -2.084220e+002 2.000000e+000 2.600000e+001
    endloop
  endfacet
  facet normal 0.000000e+000 0.000000e+000 1.000000e+000
    outer loop
      vertex   -2.084220e+002 2.000000e+000 2.600000e+001
      vertex   -2.094220e+002 1.100000e+001 2.600000e+001
      vertex   -2.093945e+002 5.094640e+000 2.600000e+001
    endloop
  endfacet
  facet normal -0.000000e+000 -0.000000e+000 1.000000e+000
    outer loop
      vertex   -2.116923e+002 2.925404e+000 2.600000e+001
      vertex   -2.084220e+002 2.000000e+000 2.600000e+001
      vertex   -2.093945e+002 5.094640e+000 2.600000e+001
    endloop
  endfacet
  facet normal 0.000000e+000 0.000000e+000 1.000000e+000
    outer loop
      vertex   -2.116923e+002 2.925404e+000 2.600000e+001
      vertex   -2.174220e+002 3.000000e+000 2.600000e+001
      vertex   -2.084220e+002 2.000000e+000 2.600000e+001
    endloop
  endfacet
  facet normal 0.000000e+000 0.000000e+000 1.000000e+000
    outer loop
      vertex   -2.116923e+002 2.925404e+000 2.600000e+001
      vertex   -2.147198e+002 3.830764e+000 2.600000e+001
      vertex   -2.174220e+002 3.000000e+000 2.600000e+001
    endloop
  endfacet
  facet normal 0.000000e+000 -0.000000e+000 1.000000e+000
    outer loop
      vertex   -2.174220e+002 3.000000e+000 2.600000e+001
      vertex   -2.147198e+002 3.830764e+000 2.600000e+001
      vertex   -2.154495e+002 6.905360e+000 2.600000e+001
    endloop
  endfacet
  facet normal -0.000000e+000 0.000000e+000 1.000000e+000
    outer loop
      vertex   -2.174220e+002 1.100000e+001 2.600000e+001
      vertex   -2.154495e+002 6.905360e+000 2.600000e+001
      vertex   -2.131517e+002 9.074596e+000 2.600000e+001
    endloop
  endfacet
  facet normal 0.000000e+000 0.000000e+000 1.000000e+000
    outer loop
      vertex   -2.094220e+002 1.100000e+001 2.600000e+001
      vertex   -2.131517e+002 9.074596e+000 2.600000e+001
      vertex   -2.101242e+002 8.169236e+000 2.600000e+001
    endloop
  endfacet
  facet normal 0.000000e+000 0.000000e+000 1.000000e+000
    outer loop
      vertex   -2.093945e+002 5.094640e+000 2.600000e+001
      vertex   -2.094220e+002 1.100000e+001 2.600000e+001
      vertex   -2.101242e+002 8.169236e+000 2.600000e+001
    endloop
  endfacet
  facet normal 0.000000e+000 0.000000e+000 1.000000e+000
    outer loop
      vertex   -2.094220e+002 1.100000e+001 2.600000e+001
      vertex   -2.174220e+002 1.100000e+001 2.600000e+001
      vertex   -2.131517e+002 9.074596e+000 2.600000e+001
    endloop
  endfacet
  facet normal -0.000000e+000 0.000000e+000 1.000000e+000
    outer loop
      vertex   -2.174220e+002 1.100000e+001 2.600000e+001
      vertex   -2.174220e+002 3.000000e+000 2.600000e+001
      vertex   -2.154495e+002 6.905360e+000 2.600000e+001
    endloop
  endfacet
  facet normal -0.000000e+000 0.000000e+000 1.000000e+000
    outer loop
      vertex   -2.700000e+002 3.000000e+000 2.600000e+001
      vertex   -2.437110e+002 2.934276e+000 2.600000e+001
      vertex   -2.174220e+002 3.000000e+000 2.600000e+001
    endloop
  endfacet
  facet normal -0.000000e+000 0.000000e+000 1.000000e+000
    outer loop
      vertex   -2.700000e+002 3.000000e+000 2.600000e+001
      vertex   -2.437110e+002 2.000000e+000 2.600000e+001
      vertex   -2.437110e+002 2.934276e+000 2.600000e+001
    endloop
  endfacet
  facet normal -0.000000e+000 0.000000e+000 1.000000e+000
    outer loop
      vertex   -2.700000e+002 3.000000e+000 2.600000e+001
      vertex   -2.790000e+002 2.000000e+000 2.600000e+001
      vertex   -2.437110e+002 2.000000e+000 2.600000e+001
    endloop
  endfacet
  facet normal 0.000000e+000 -0.000000e+000 1.000000e+000
    outer loop
      vertex   -2.781140e+002 8.930740e+001 2.600000e+001
      vertex   -2.760916e+002 9.173548e+001 2.600000e+001
      vertex   -2.790000e+002 9.277000e+001 2.600000e+001
    endloop
  endfacet
  facet normal -0.000000e+000 0.000000e+000 1.000000e+000
    outer loop
      vertex   -2.790000e+002 9.277000e+001 2.600000e+001
      vertex   -2.760916e+002 9.173548e+001 2.600000e+001
      vertex   -2.700000e+002 9.177000e+001 2.600000e+001
    endloop
  endfacet
  facet normal 0.000000e+000 0.000000e+000 1.000000e+000
    outer loop
      vertex   -2.437110e+002 9.277000e+001 2.600000e+001
      vertex   -2.790000e+002 9.277000e+001 2.600000e+001
      vertex   -2.700000e+002 9.177000e+001 2.600000e+001
    endloop
  endfacet
  facet normal -0.000000e+000 0.000000e+000 1.000000e+000
    outer loop
      vertex   -2.112897e+002 9.172019e+001 2.600000e+001
      vertex   -2.093009e+002 8.926454e+001 2.600000e+001
      vertex   -2.084220e+002 9.277000e+001 2.600000e+001
    endloop
  endfacet
  facet normal 0.000000e+000 0.000000e+000 1.000000e+000
    outer loop
      vertex   -2.084220e+002 9.277000e+001 2.600000e+001
      vertex   -2.093009e+002 8.926454e+001 2.600000e+001
      vertex   -2.094220e+002 8.377000e+001 2.600000e+001
    endloop
  endfacet
  facet normal 0.000000e+000 -0.000000e+000 1.000000e+000
    outer loop
      vertex   -2.084220e+002 4.738500e+001 2.600000e+001
      vertex   -2.084220e+002 9.277000e+001 2.600000e+001
      vertex   -2.094220e+002 8.377000e+001 2.600000e+001
    endloop
  endfacet
  facet normal -0.000000e+000 0.000000e+000 1.000000e+000
    outer loop
      vertex   -2.437110e+002 2.934276e+000 2.600000e+001
      vertex   -2.437110e+002 2.000000e+000 2.600000e+001
      vertex   -2.174220e+002 3.000000e+000 2.600000e+001
    endloop
  endfacet
  facet normal -0.000000e+000 0.000000e+000 1.000000e+000
    outer loop
      vertex   -2.174220e+002 3.000000e+000 2.600000e+001
      vertex   -2.437110e+002 2.000000e+000 2.600000e+001
      vertex   -2.084220e+002 2.000000e+000 2.600000e+001
    endloop
  endfacet
endsolid
